<?xml version="1.0" encoding="utf-8"?>
<!-- Generator: Adobe Illustrator 27.5.0, SVG Export Plug-In . SVG Version: 6.00 Build 0)  -->
<svg version="1.1" xmlns="http://www.w3.org/2000/svg" xmlns:xlink="http://www.w3.org/1999/xlink" x="0px" y="0px"
	 viewBox="0 0 500 500" style="enable-background:new 0 0 500 500;" xml:space="preserve">
<g id="BACKGROUND">
	<rect x="-0.228" y="0.383" style="fill:#EB496F;" width="499.92" height="499.92"/>
</g>
<g id="OBJECTS">
	<g>
		<g>
			<g>
				<g>
					<path style="fill:#E2E4E4;" d="M243.35,81.326v93.462c0,3.976-3.222,7.199-7.199,7.199H83.777
						c-3.977,0-7.199-3.222-7.199-7.199V81.326c0-3.976,3.222-7.199,7.199-7.199h152.374
						C240.128,74.127,243.35,77.349,243.35,81.326z"/>
				</g>
				<g>
					<path style="fill:#006891;" d="M243.35,81.326v7.448H76.578v-7.448c0-3.976,3.222-7.199,7.199-7.199h152.374
						C240.128,74.127,243.35,77.349,243.35,81.326z"/>
					<g>
						<path style="fill:#00AA80;" d="M109.524,81.451c0,2.267-1.838,4.105-4.105,4.105c-2.267,0-4.105-1.838-4.105-4.105
							c0-2.267,1.838-4.105,4.105-4.105C107.686,77.346,109.524,79.184,109.524,81.451z"/>
						<path style="fill:#FDBB3B;" d="M98.819,81.451c0,2.267-1.838,4.105-4.105,4.105c-2.267,0-4.105-1.838-4.105-4.105
							c0-2.267,1.838-4.105,4.105-4.105C96.981,77.346,98.819,79.184,98.819,81.451z"/>
						<path style="fill:#EB496F;" d="M87.839,81.451c0,2.267-1.838,4.105-4.105,4.105c-2.267,0-4.105-1.838-4.105-4.105
							c0-2.267,1.838-4.105,4.105-4.105C86.001,77.346,87.839,79.184,87.839,81.451z"/>
					</g>
				</g>
			</g>
			<g>
				<rect x="137.688" y="110.599" style="fill:#FDBB3B;" width="48.601" height="5.39"/>
				<polyline style="fill:#FFFFFF;" points="229.766,110.599 192.646,110.599 192.646,115.989 229.766,115.989 				"/>
				<polyline style="fill:#006891;" points="93.722,125.467 177.051,125.467 177.051,120.077 93.722,120.077 				"/>
				<polyline style="fill:#006891;" points="116.388,103.226 199.717,103.226 199.717,97.836 116.388,97.836 				"/>
				<rect x="183.585" y="120.077" style="fill:#FDBB3B;" width="20.254" height="5.39"/>
				<polyline style="fill:#FFFFFF;" points="229.766,120.077 210.195,120.077 210.195,125.467 229.766,125.467 				"/>
				<polyline style="fill:#FFFFFF;" points="229.766,97.836 205.945,97.836 205.945,103.226 229.766,103.226 				"/>
				<polyline style="fill:#006891;" points="93.722,134.944 137.688,134.944 137.688,129.554 93.722,129.554 				"/>
				<rect x="144.222" y="129.554" style="fill:#FDBB3B;" width="59.617" height="5.39"/>
				<polyline style="fill:#FDBB3B;" points="110.698,144.421 137.688,144.421 137.688,139.032 110.698,139.032 				"/>
				<polyline style="fill:#FFFFFF;" points="229.766,139.032 144.045,139.032 144.045,144.421 229.766,144.421 				"/>
				<polyline style="fill:#006891;" points="93.722,153.899 131.154,153.899 131.154,148.509 93.722,148.509 				"/>
				<rect x="137.688" y="148.509" style="fill:#FDBB3B;" width="66.151" height="5.39"/>
				<polyline style="fill:#FFFFFF;" points="229.766,148.509 210.195,148.509 210.195,153.899 229.766,153.899 				"/>
				<polyline style="fill:#006891;" points="93.722,163.376 156.404,163.376 156.404,157.986 93.722,157.986 				"/>
				<rect x="162.939" y="157.986" style="fill:#FDBB3B;" width="23.351" height="5.39"/>
				<polyline style="fill:#FFFFFF;" points="229.766,157.986 192.646,157.986 192.646,163.376 229.766,163.376 				"/>
				<rect x="121.141" y="167.464" style="fill:#FDBB3B;" width="82.698" height="5.39"/>
				<polyline style="fill:#FFFFFF;" points="229.766,167.464 210.195,167.464 210.195,172.854 229.766,172.854 				"/>
			</g>
			
				<text transform="matrix(1 0 0 1 93.7222 105.2907)" style="fill:#0088BB; font-family:'Montserrat-ExtraBold'; font-size:11.0227px;">&lt;/&gt;</text>
		</g>
	</g>
	<g>
		<g>
			<g>
				<g>
					<path style="fill:#EFB3A6;" d="M82.025,272.051c0.036,0.289,0.061,0.575,0.075,0.857c0,0.007,0.001,0.013,0.001,0.02
						c0,0.007,0,0.013,0,0.02c0.186,4.058-1.998,7.15-9.112,5.877c-0.843-0.151-1.589-0.6-2.256-1.25l-0.002,0.002
						c0,0-4.079-3.975-6.427-8.59c-1.43-2.81-1.079-4.151-1.138-4.329c-0.5-0.705-0.932-1.223-1.253-1.46
						c-0.585-0.434-1.288-0.563-1.288-0.563s-0.236,0.838,0.447,2.183c0.683,1.345-1.469,3.371-3.027-0.076
						c-1.298-2.871-0.883-4.723,0.603-5.338c-0.373-0.016-0.75-0.016-1.132,0.007c-5.175,0.318-4.962-3.971,0.414-3.969
						c0.593,0,1.205,0.025,1.824,0.07c-0.044-0.106-0.076-0.207-0.099-0.303c-0.334-0.063-0.672-0.11-1.013-0.137
						c-5.256-0.423-3.91-4.689,1.205-3.8c1.406,0.245,2.88,0.663,4.309,1.186c-0.549-0.403-1.103-0.763-1.651-1.057
						c-3.804-2.044-2.341-5.631,1.415-3.885c3.756,1.746,9.077,6.035,11.818,9.54C78.322,260.36,81.454,267.14,82.025,272.051z"/>
					<path style="fill:none;stroke:#D17A80;stroke-width:1.4399;stroke-miterlimit:10;" d="M65.358,253.396
						c3.862,3.428,4.767,5.521,4.767,5.521"/>
					<path style="fill:none;stroke:#D17A80;stroke-width:1.4399;stroke-miterlimit:10;" d="M60.098,260.807
						c0,0,1.45,0.264,2.898,2.071"/>
				</g>
				<g>
					<path style="fill:none;stroke:#D17A80;stroke-width:1.4399;stroke-miterlimit:10;" d="M66.336,266.876
						c-1.243-2.29-1.372-4.466-2.426-5.967c-1.404-2.001-4.746-5.059-4.237-6.231c0.985-2.269,3.225-0.886,5.646,1.143
						c2.421,2.029,6.745,4.687,8.66,3.776"/>
				</g>
			</g>
			<g>
				<path style="fill:#EDB1A4;" d="M165.656,262.366l-0.007,0.007c-0.729,2.149-1.634,4.505-2.768,7.044
					c-2.701,6.065-6.669,13.176-12.499,20.941c-2.26,2.996-4.777,6.08-7.611,9.252c-0.132,0.147-0.272,0.302-0.405,0.449
					c-1.303,1.435-2.672,2.893-4.107,4.365c-1.222,1.266-2.547,2.267-3.975,3.026l-12.307-14.449c0,0,0.765-1.45,2.061-3.871
					c0.375-0.707,0.802-1.495,1.266-2.356c0.574-1.067,1.215-2.238,1.892-3.496c0.177-0.331,0.353-0.67,0.545-1.008
					c0.434-0.817,0.891-1.664,1.362-2.54c7.059-12.984,17.386-31.526,21.464-36.531c0.007-0.015,0.022-0.022,0.029-0.03
					c0.442-0.405,0.869-0.78,1.273-1.134l6.89,2.665l3.71,1.435c0.346,0.508,0.692,1.06,1.023,1.627
					C164.368,250.81,165.428,255.771,165.656,262.366z"/>
				<path style="fill:#EDB1A4;" d="M141.344,300.177c-0.92,1.664-1.951,3.07-3.084,4.247c-1.222,1.266-2.547,2.267-3.975,3.026
					c-20.853,11.137-61.815-28.788-61.815-28.788l6.492-7.53l46.343,15.641l2.127,0.721L141.344,300.177z"/>
				<path style="fill:#0088BB;" d="M247.918,337.739l-89.756,1.45l-6.271-91.522c-0.596-4.21,0.243-6.603,4.203-8.156
					c3.312-1.303,8.369-3.275,14.604-4.711c1.31-0.294,2.665-0.574,4.071-0.817c3.511-0.611,7.309-1.001,11.321-1.001l12.373-0.854
					c0,0,4.365,0.088,10.261,0.641c2.363,0.213,4.983,0.5,7.67,0.891c2.738,0.397,5.543,0.891,8.222,1.516
					c5.727,1.34,9.429,6.882,8.509,12.69L247.918,337.739z"/>
				<path style="fill:#006891;" d="M216.393,233.66c-47.042,27.624-46.733,7.434-45.695,1.141c1.31-0.294,2.665-0.574,4.071-0.817
					c3.511-0.611,7.309-1.001,11.321-1.001l12.373-0.854c0,0,4.365,0.088,10.261,0.641
					C211.086,232.982,213.706,233.269,216.393,233.66z"/>
				<path style="fill:#EFB3A6;" d="M208.723,232.769c-40.822,24.871-33.955,1.214-33.955,1.214
					c3.511-0.611,7.309-1.001,11.321-1.001l12.373-0.854C198.462,232.128,202.827,232.217,208.723,232.769z"/>
				<g>
					<g>
						<path style="fill:#33324F;" d="M156.645,198.309c0,0-7.333,0.107-6.6-5.99s7.424-6.201,7.424-6.201L156.645,198.309z"/>
						<path style="fill:#33324F;" d="M204.326,180.105c-1.985-1.893-4.659-2.655-7.288-2.437
							c-1.171-9.381-15.678-10.056-23.076-9.141c0.05-0.146,0.095-0.288,0.15-0.442c0.043-0.072,0.079-0.152,0.101-0.248
							c0.568-2.518,0.917-5.935-0.697-8.174c-1.423-1.974-4.107-2.68-6.355-2.381c-4.927,0.654-6.85,5.006-7.368,9.479
							c-2.51-2.841-8.019-3.132-10.321,0.383c-3.173,4.846,0.199,9.167,3.017,13.036c-2.705,0.385-7.635,2.043-6.494,5.444
							c1.292,3.852,8.111,2.292,10.88,1.594c0.1-0.025,0.181-0.067,0.25-0.117c0.546,0.179,1.253-0.279,0.966-0.974
							c-1.097-2.663,10.54-3.509,12.082-3.636c4.022-0.332,8.068-0.693,12.104-0.803c3.882-0.105,7.568,0.403,9.974,3.946
							c2.365,3.481,4.137,7.552,6.1,11.286c0.014,0.027,0.031,0.047,0.046,0.07c0.232,2.835-0.039,5.568-0.825,8.305
							c-0.208,0.725,0.659,1.121,1.179,0.818c6.417-3.746,8.97-9.67,8.474-17.179C207.009,185.681,206.776,182.443,204.326,180.105z
							"/>
					</g>
					<g>
						<g>
							<path style="fill:#EFB3A6;" d="M199.954,235.258c-15.545,4.112-24.62,7.677-22.438,1.553l0.479-2.373l0.122-0.616
								l1.333-6.629l1.286-6.366l0.628-3.088l16.579-1.465l0.886,8.349l0.367,3.44L199.954,235.258z"/>
						</g>
						<path style="fill:#D17A80;" d="M199.195,228.062c-2.082,0.82-17.24,6.73-21.201,6.376l0.122-0.616l1.333-6.629l18.636-9.469
							L199.195,228.062z"/>
					</g>
					<g>
						<g>
							<path style="fill:#EDB1A4;" d="M156.034,198.709c0.043,0.642,0.086,1.271,0.143,1.928c0.029,0.4,0.071,0.8,0.114,1.201
								c0.271,2.586,0.671,4.943,1.171,7.057c0.614,2.614,1.4,4.886,2.3,6.872c0.729,1.599,1.543,3.014,2.428,4.257
								c5.657,8.043,13.929,8.914,19.415,8.4c6.328-0.586,15.971-3.686,19.114-16.5c0.957-3.829,1.314-8.543,0.829-14.314
								c-0.043-0.601-0.1-1.186-0.171-1.772c-0.057-0.643-0.143-1.272-0.229-1.885c-1.943-14.086-8.386-24.757-24.943-23.214
								C159.448,172.309,155.191,184.28,156.034,198.709z"/>
						</g>
					</g>
					<g>
						<path style="fill:#33324F;" d="M190.563,186.118c0,0-1.928,16.671,3.494,20.258c0,0,5.919,3.955,7.173-11.83L190.563,186.118z
							"/>
						<path style="fill:#33324F;" d="M192.488,192.618c0,0-9.685,1.878-10.512-6.189c0,0-5.794,5.785-12.077,0.23
							c0,0-1.276,5.123-9.158,3.994c0,0,1.766,6.78-4.73,7.629l-1.787-3.627l0.934-7.979l2.311-5.449l5.582-6.95l5.918-2.85
							l7.501-1.251h6.26l7.499,1.668l5.5,5.074l4.528,5.977l1.258,11.607l-1.218,1L192.488,192.618z"/>
					</g>
					<g>
						<g>
							<path style="fill:#EFB3A6;" d="M194.607,202.042c0.026,1.454,0.322,2.951,0.696,4.335c0.165,0.627,0.348,1.228,0.522,1.785
								c0.009,0.008,0.009,0.017,0.009,0.017c0.026,0.087,0.052,0.165,0.078,0.252c0.044,0.139,0.105,0.27,0.183,0.374
								c0.096,0.165,0.235,0.296,0.383,0.392c1.323,1.628,3.7,2.011,5.815,1.227c0.653-0.235,1.288-0.592,1.854-1.062
								c1.915-1.576,3.16-3.578,3.569-5.736c0.331-1.793,0.104-3.691-0.801-5.537c-0.339-0.688-0.731-1.279-1.175-1.767
								c-0.583-0.653-1.253-1.123-1.976-1.419c-0.409-0.183-0.844-0.296-1.288-0.357c-1.663-0.227-3.517,0.313-5.293,1.532
								c-0.618,0.426-1.114,0.922-1.489,1.48C194.824,198.839,194.546,200.414,194.607,202.042z"/>
						</g>
						<path style="fill:none;stroke:#D17A80;stroke-width:1.4839;stroke-miterlimit:10;" d="M199.06,207.218
							c0,0-3.162-10.306,5.024-7.663"/>
						
							<line style="fill:none;stroke:#D17A80;stroke-width:1.4839;stroke-miterlimit:10;" x1="198.489" y1="204.057" x2="202.025" y2="202.454"/>
					</g>
					<g>
						<g>
							<g>
								<path style="fill:none;stroke:#D17A80;stroke-width:1.4839;stroke-miterlimit:10;" d="M173.985,213.519l-8.173,0.797
									c6.643-1.117,4.783-11.16,4.783-11.16"/>
								<g>
									<g style="opacity:0.5;">
										<path style="fill:#D17A80;" d="M181.576,221.187c0.89,1.337-4.778,2.951-5.426,1.642
											C175.503,221.52,180.655,219.804,181.576,221.187z"/>
									</g>
									<path style="fill:none;stroke:#D17A80;stroke-width:1.4839;stroke-miterlimit:10;" d="M184.217,213.132
										c-1.881,4.477-7.221,6.139-12.444,5.629"/>
								</g>
							</g>
							<g>
								<g>
									<g>
										<g>
											<g>
												<path style="fill:#33324F;" d="M161.039,203.874c0.156,1.524,1.131,2.673,2.178,2.566s1.771-1.429,1.615-2.953
													c-0.155-1.524-1.131-2.673-2.178-2.566C161.606,201.028,160.883,202.35,161.039,203.874z"/>
											</g>
										</g>
									</g>
									<g>
										<g>
											<g>
												<path style="fill:#33324F;" d="M178.782,202.063c0.155,1.524,1.131,2.673,2.178,2.566s1.771-1.429,1.615-2.953
													c-0.155-1.524-1.131-2.673-2.178-2.566S178.626,200.54,178.782,202.063z"/>
											</g>
										</g>
									</g>
								</g>
								<g>
									<path style="fill:#33324F;" d="M177.8,198.601c5.525,0.307,8.642-1.226,3.878-1.882
										C176.914,196.063,174.936,198.442,177.8,198.601z"/>
									<path style="fill:#33324F;" d="M164.436,197.452c-4.887,2.596-8.359,2.511-4.31-0.082
										C164.176,194.777,166.969,196.107,164.436,197.452z"/>
								</g>
							</g>
						</g>
						<g>
							<g>
								<path style="fill:#FFFFFF;" d="M185.831,199.159c-0.818-1.318-2.005-2.386-3.41-3.067c-0.162-0.081-0.331-0.156-0.5-0.219
									c-0.793-0.325-1.655-0.525-2.554-0.575c-0.162-0.012-0.325-0.019-0.487-0.019c-1.081,0-2.111,0.212-3.054,0.593
									c-1.618,0.656-2.985,1.818-3.897,3.285c-0.612,0.987-1.018,2.111-1.162,3.31h-4.491c-0.144-1.199-0.55-2.323-1.162-3.31
									c-0.912-1.468-2.28-2.629-3.903-3.285c-0.943-0.381-1.974-0.593-3.048-0.593c-1.08,0-2.111,0.206-3.048,0.593
									c-1.399,0.562-2.598,1.493-3.485,2.679c-0.144,0.194-0.287,0.393-0.406,0.606c-0.712,1.13-1.143,2.448-1.218,3.86
									c-0.006,0.144-0.012,0.287-0.012,0.431c0,0.475,0.044,0.937,0.119,1.393c0.156,0.881,0.45,1.711,0.856,2.473v0.006
									c0.15,0.281,0.325,0.55,0.506,0.812c1.105,1.568,2.748,2.736,4.653,3.229c0.575,0.15,1.174,0.231,1.792,0.25
									c0.081,0.006,0.162,0.006,0.244,0.006c2.792,0,5.259-1.405,6.726-3.485c0.55-0.768,0.962-1.624,1.199-2.542
									c0.062-0.243,0.119-0.493,0.156-0.749c0.056-0.368,0.088-0.743,0.088-1.124h4.378c0,0.381,0.031,0.756,0.094,1.124
									c0.037,0.256,0.087,0.506,0.156,0.749c0.237,0.918,0.65,1.774,1.193,2.542c1.468,2.08,3.935,3.485,6.727,3.485
									c0.131,0,0.262,0,0.387-0.012c1.118-0.05,2.167-0.325,3.117-0.781h0.006c1.087-0.518,2.036-1.268,2.792-2.186
									c0.137-0.162,0.262-0.331,0.387-0.506c0.675-0.962,1.149-2.086,1.355-3.291c0.081-0.456,0.125-0.918,0.125-1.393
									C187.049,201.876,186.599,200.408,185.831,199.159z M165.039,205.592c-0.294,0.943-0.781,1.805-1.411,2.542
									c-1.318,1.543-3.279,2.517-5.465,2.517h-0.175c-2.111-0.05-4.004-1.018-5.29-2.517c-0.793-0.924-1.362-2.049-1.599-3.291
									c-0.094-0.45-0.137-0.918-0.137-1.393c0-1.605,0.525-3.092,1.418-4.291c1.312-1.768,3.416-2.917,5.783-2.917
									c2.367,0,4.472,1.149,5.783,2.917c0.893,1.199,1.418,2.686,1.418,4.291c0,0.475-0.044,0.943-0.144,1.393
									C165.177,205.099,165.114,205.348,165.039,205.592z M184.344,208.134c-1.255,1.468-3.092,2.417-5.146,2.511
									c-0.106,0.006-0.212,0.006-0.318,0.006c-2.186,0-4.147-0.974-5.465-2.517c-0.631-0.737-1.118-1.599-1.411-2.542
									c-0.075-0.243-0.137-0.493-0.181-0.749c-0.1-0.45-0.144-0.918-0.144-1.393c0-1.605,0.525-3.092,1.418-4.291
									c1.312-1.768,3.416-2.917,5.783-2.917c2.367,0,4.472,1.149,5.783,2.917c0.899,1.199,1.424,2.686,1.424,4.291
									c0,0.475-0.044,0.943-0.137,1.393C185.706,206.085,185.138,207.21,184.344,208.134z"/>
							</g>
						</g>
					</g>
				</g>
				<g>
					<path style="fill:#EDB1A4;" d="M239.243,246.232l0.003,0.007c2.711,7.189,5.382,17.546,5.997,31.306
						c0.172,3.92,0.184,8.11-0.019,12.586c-0.161,3.483-0.452,7.14-0.887,10.96l-0.151-0.028l-19.188-3.423
						c0,0-0.332-1.607-0.873-4.293c-0.347-1.762-0.789-3.991-1.284-6.528c-0.254-1.246-0.511-2.571-0.78-3.955
						c-3.153-16.291-7.57-40.606-6.483-43.528l10.887-3.607c0.591,0.172,1.204,0.374,1.823,0.607
						C230.905,238.124,234.876,241.28,239.243,246.232z"/>
					<path style="fill:#EDB1A4;" d="M225.791,292.879l-48.898,15.031l-0.873,9.9c0,0,72.464,10.865,68.468-22.76L225.791,292.879z"
						/>
					<g>
						<path style="fill:#EFB3A6;" d="M161.598,316.085c0,0-3.661,0.065-7.031,1.342c-3.37,1.278-3.402-2.32-0.384-3.472
							c0,0-1.762,0.188-3.892,1.199c-2.13,1.011-3.204-1.321-2.075-2.557c0,0-1.475,0.543-2.209-0.829
							c-0.734-1.372,0.788-2.773,1.374-3.176c0,0-2.737-2.398,3.092-4.948c5.829-2.551,13.592-3.95,23.324,0.902
							c6.695,3.338,7.113,8.586,5.538,11.313C176.474,320.812,167.592,321.611,161.598,316.085z"/>
						<path style="fill:none;stroke:#D17A80;stroke-width:1.4399;stroke-miterlimit:10;" d="M154.184,313.955
							c5.059-1.865,7.431-1.667,7.431-1.667"/>
						<path style="fill:none;stroke:#D17A80;stroke-width:1.4399;stroke-miterlimit:10;" d="M148.216,312.597
							c7.765-3.837,11.748-3.531,11.748-3.531"/>
						<path style="fill:none;stroke:#D17A80;stroke-width:1.4399;stroke-miterlimit:10;" d="M147.381,308.592
							c4.861-3.098,11.475-3.438,11.475-3.438"/>
					</g>
				</g>
				<path style="fill:#0088BB;" d="M252.579,290.46l-7.355-0.329l-27.105-0.728l0.03-1.322l-6.745-50.712l5.475-2.54
					c0,0,4.133-0.692,9.587,0.9c0.591,0.172,1.204,0.374,1.823,0.607C238.617,240.177,252.276,251.822,252.579,290.46z"/>
				<path style="fill:#0088BB;" d="M154.826,240.098c0,0-18.412,9.557-29.49,41.026l22.881,21.408l12.626-15.699L154.826,240.098z"
					/>
				
					<line style="fill:none;stroke:#D17A80;stroke-width:1.4399;stroke-miterlimit:10;" x1="219.84" y1="294.708" x2="226.49" y2="292.626"/>
				
					<line style="fill:none;stroke:#D17A80;stroke-width:1.4399;stroke-miterlimit:10;" x1="119.356" y1="284.766" x2="128.602" y2="287.903"/>
				<g>
					<path style="fill:none;stroke:#005467;stroke-width:0.7419;stroke-miterlimit:10;" d="M155.069,294.011
						c0,0-1.304-22.058,0-31.978"/>
					
						<line style="fill:none;stroke:#005467;stroke-width:0.7419;stroke-miterlimit:10;" x1="154.779" y1="269.39" x2="152.236" y2="264.365"/>
				</g>
				<g>
					<polyline style="fill:none;stroke:#005467;stroke-width:0.7419;stroke-miterlimit:10;" points="223.377,289.544 
						219.84,289.449 213.998,256.867 					"/>
					
						<line style="fill:none;stroke:#005467;stroke-width:0.7419;stroke-miterlimit:10;" x1="214.889" y1="261.84" x2="211.924" y2="258.886"/>
				</g>
			</g>
		</g>
		<g>
			<g>
				<path style="fill:#33324F;" d="M301.516,198.968c0,0-14.127,4.679-10.067,17.72c0,0-10.826-1.303-13.758,12.973
					c0,0-16.465-0.625-15.563,16.299c0.902,16.924,19.676,8.16,19.676,8.16s4.788,15.21,17.704,7.702c0,0,8.013,10.892,16.892,0
					L301.516,198.968z"/>
				<path style="fill:#33324F;" d="M341.15,204.29c0,0,11.827,9.034,3.734,20.035c0,0,10.659,2.301,8.771,16.753
					c0,0,15.767,4.782,9.392,20.485c-6.376,15.703-21.262,1.292-21.262,1.292s-9.49,12.815-19.249,1.502
					c0,0-11.129,7.68-15.967-5.513L341.15,204.29z"/>
				<path style="fill:#33324F;" d="M347.31,206.034c-0.151,0.885-0.336,1.791-0.556,2.731c-0.515,2.23-1.215,4.605-2.114,7.151
					c-0.021,0.055-0.034,0.103-0.062,0.158c-0.343,0.968-0.714,1.963-1.119,2.979c-0.474,1.194-1.585,2.004-2.848,2.052
					l-32.668,1.153c-2.512,0.089-4.036-2.8-4.9-5.195c-3.418-9.485-9.972-31.728,13.225-39.278c4.056-1.318,8.38-1.578,12.553-0.741
					C337.489,178.787,351.064,184.868,347.31,206.034z"/>
			</g>
			<g>
				<path style="fill:#E8776E;" d="M338.875,302.49c-0.349,1.738-0.465,3.359-0.369,4.88c0.105,1.637,0.443,3.148,1.001,4.549
					c8.109,20.497,61.315,16.82,61.315,16.82l-0.074-9.27l-42.385-16.834l-1.947-0.77L338.875,302.49z"/>
				<g>
					<path style="fill:#E8776E;" d="M357.195,307.646l-15.891,7.796c-0.94-1.182-1.7-2.526-2.279-4.061
						c-0.683-1.793-1.31-3.546-1.895-5.26c-0.053-0.177-0.12-0.361-0.18-0.537c-1.248-3.761-2.257-7.337-3.075-10.733
						c-2.107-8.81-2.859-16.362-2.92-22.553c-0.033-2.595,0.071-4.946,0.244-7.052l-0.007-0.007
						c2.642-5.562,5.394-9.41,7.272-11.695c0.491-0.357,0.996-0.701,1.482-1.011l0.536,0.019l3.169,0.129l5.204,0.208
						c0.64,0.771,1.29,1.638,1.956,2.608c0.33,0.485,0.66,0.991,0.991,1.53c1.493,7.75,3.141,24.511,4.223,36.625
						c0.075,0.925,0.148,1.815,0.221,2.678c0.038,0.356,0.062,0.712,0.092,1.061c0.03,0.342,0.061,0.678,0.084,1.007
						c0.089,0.952,0.163,1.849,0.235,2.685c0.074,0.911,0.153,1.74,0.209,2.486C357.076,306.125,357.195,307.646,357.195,307.646z"
						/>
					
						<line style="fill:none;stroke:#924541;stroke-width:1.3836;stroke-miterlimit:10;" x1="354.836" y1="301.304" x2="360.075" y2="303.314"/>
				</g>
				<g>
					<g>
						<path style="fill:#E8776E;" d="M397.253,318.129c-0.2,0.184-0.39,0.372-0.57,0.564c-0.004,0.004-0.009,0.009-0.013,0.013
							c-0.004,0.005-0.008,0.009-0.012,0.014c-2.58,2.773-2.892,6.289,2.933,9.675c0.69,0.401,1.492,0.531,2.357,0.472l0.001,0.003
							c0,0,5.298-0.366,9.751-2.23c2.711-1.135,3.272-2.3,3.421-2.391c0.781-0.2,1.4-0.307,1.772-0.283
							c0.678,0.045,1.255,0.377,1.255,0.377s-0.337,0.738-1.634,1.283c-1.297,0.545-0.989,3.283,2.198,1.772
							c2.655-1.258,3.477-2.826,2.791-4.159c0.275,0.214,0.543,0.441,0.8,0.688c3.487,3.347,5.924,0.169,2.1-3.072
							c-0.422-0.358-0.872-0.709-1.339-1.05c0.095-0.049,0.179-0.101,0.253-0.156c0.275,0.157,0.544,0.327,0.803,0.514
							c3.992,2.87,5.609-0.976,1.435-3.428c-1.147-0.674-2.447-1.266-3.779-1.756c0.633,0.045,1.244,0.123,1.812,0.244
							c3.937,0.842,5.061-2.591,1.337-3.616s-10.094-1.185-14.157-0.346C406.938,312.049,400.621,314.981,397.253,318.129z"/>
						<path style="fill:none;stroke:#924541;stroke-width:1.3836;stroke-miterlimit:10;" d="M420.356,314.918
							c-4.814,0.108-6.719,1.05-6.719,1.05"/>
						<path style="fill:none;stroke:#924541;stroke-width:1.3836;stroke-miterlimit:10;" d="M419.625,323.36
							c0,0-1.19-0.687-3.31-0.276"/>
					</g>
					<g>
						<path style="fill:none;stroke:#924541;stroke-width:1.3836;stroke-miterlimit:10;" d="M411.529,323.913
							c2.265-0.878,3.67-2.348,5.324-2.78c2.206-0.576,6.426-0.734,6.771-1.874c0.668-2.207-1.759-2.575-4.704-2.593
							c-2.945-0.018-7.623-0.736-8.435-2.539"/>
					</g>
				</g>
			</g>
			<path style="fill:#FDBB3B;" d="M352.237,252.71c0.014,0.275,0,0.563-0.041,0.844l-3.143,45.894l-2.704,39.443l-83.689-1.352
				l13.795-83.799c-0.858-5.415,2.594-10.583,7.934-11.832c2.498-0.583,5.113-1.043,7.666-1.413
				c0.618-0.089,1.235-0.172,1.839-0.254c1.283-0.165,2.533-0.302,3.727-0.426c0.542-0.055,1.071-0.103,1.585-0.151
				c0.371-0.035,0.741-0.069,1.098-0.096c4.935-0.432,8.469-0.501,8.469-0.501l11.537,0.796c2.292,0,4.509,0.137,6.637,0.371
				c0.158,0.013,0.316,0.034,0.473,0.055c0.103,0.014,0.199,0.021,0.295,0.035c0.281,0.041,0.556,0.075,0.83,0.11
				c0.789,0.11,1.558,0.234,2.32,0.364c0.707,0.124,1.4,0.254,2.08,0.391l0.007,0.007c0.577,0.117,1.146,0.24,1.709,0.364
				c1.935,0.439,3.747,0.94,5.415,1.455c0.803,0.247,1.318,0.398,1.668,0.494c0.014,0,0.041,0.007,0.062,0.014
				c0.302,0.089,0.474,0.13,0.597,0.165c0.034,0.007,0.062,0.014,0.103,0.027c0.137,0.041,0.247,0.082,0.508,0.192
				c0.034,0.014,0.076,0.035,0.11,0.048C345.011,244.756,348.531,246.931,352.237,252.71z"/>
			<g>
				<g>
					<path style="fill:#FFFFFF;" d="M324.95,250.28l2.402-9.869c0.075,0.02,0.082-0.034,0.069-0.124
						c0.103,0.014,0.199,0.021,0.295,0.035c0.281,0.041,0.556,0.075,0.83,0.11c0.789,0.11,1.558,0.234,2.32,0.364
						c0.707,0.124,1.4,0.254,2.08,0.391l0.007,0.007c0.577,0.117,1.146,0.24,1.709,0.364
						C346.02,255.819,324.95,250.28,324.95,250.28z"/>
					<g>
						<path style="fill:#FFFFFF;" d="M325.554,249.436c0,0-0.247,0.494-0.734,1.221c-2.752,4.118-13.225,15.827-30.925-10.418
							c1.283-0.165,2.533-0.302,3.727-0.426c0.542-0.055,1.071-0.103,1.585-0.151c0.371-0.035,0.741-0.069,1.098-0.096l24.604,9.615
							L325.554,249.436z"/>
					</g>
				</g>
				<path style="fill:#E8776E;" d="M297.621,239.814c0.542-0.055,1.071-0.103,1.585-0.151c5.497-0.515,9.567-0.597,9.567-0.597
					l11.537,0.796c2.292,0,4.509,0.137,6.637,0.371c0.529,0.082,1.057,0.165,1.572,0.254
					C328.519,240.487,334.833,262.25,297.621,239.814z"/>
			</g>
			<g style="opacity:0.5;">
				<path style="fill:#924541;" d="M321.003,230.138c-0.83,1.246,4.456,2.752,5.059,1.531
					C326.666,230.449,321.862,228.849,321.003,230.138z"/>
			</g>
			<g>
				<path style="fill:#FDBB3B;" d="M363.767,291.486c0,0-3.267,2.107-7.151,4.269c-2.491,1.386-5.25,2.8-7.563,3.692
					c-1.99,0.762-3.658,1.139-4.543,0.776l-2.512-50.753l-0.295-5.971c0,0,0.014,0,0.041,0.007c0.014,0,0.041,0.007,0.062,0.014
					c0.117,0.021,0.316,0.069,0.597,0.165c0.034,0.007,0.062,0.014,0.103,0.027c0.151,0.055,0.316,0.117,0.508,0.192
					c0.034,0.014,0.076,0.035,0.11,0.048c1.565,0.666,4.248,2.271,7.234,6.094c0.618,0.789,1.242,1.675,1.88,2.663
					c0.316,0.494,0.631,1.009,0.947,1.558C357.254,261.241,361.407,272.688,363.767,291.486z"/>
			</g>
			<g>
				<path style="fill:none;stroke:#EC9E05;stroke-width:1.1065;stroke-miterlimit:10;" d="M345.439,265.381
					c0,0,6.407,18.443,3.614,34.067"/>
				
					<line style="fill:none;stroke:#EC9E05;stroke-width:1.1065;stroke-miterlimit:10;" x1="346.762" y1="269.846" x2="348.348" y2="266.486"/>
			</g>
			<g>
				<path style="fill:#E8776E;" d="M277.258,245.922c0.048-0.041,0.096-0.076,0.144-0.11c0.343-0.254,0.666-0.48,0.975-0.686
					c0.577-0.213,1.146-0.405,1.695-0.563l10.157,3.363c1.009,2.725-3.109,25.394-6.046,40.589c-0.254,1.29-0.494,2.526-0.728,3.685
					c-0.419,2.121-0.789,4.001-1.098,5.552c-0.034,0.185-0.069,0.364-0.103,0.535c-0.501,2.505-0.81,4.001-0.81,4.001l-17.892,3.191
					l-0.144,0.028c-0.261-2.306-0.467-4.55-0.618-6.726c-0.082-1.187-0.151-2.347-0.206-3.493
					c-0.192-4.173-0.178-8.078-0.021-11.736c0.515-11.455,2.553-20.377,4.79-26.931L277.258,245.922z"/>
				<path style="fill:#E8776E;" d="M281.248,297.928l43.447,19.685l-0.363,9.26c0,0-68.305,1.478-60.633-29.148L281.248,297.928z"/>
				<g>
					<path style="fill:#E8776E;" d="M337.873,326.983c0,0,3.378,0.493,6.344,2.073c2.966,1.58,3.421-1.744,0.766-3.166
						c0,0,1.608,0.382,3.458,1.57c1.85,1.187,3.12-0.843,2.222-2.119c0,0,1.3,0.677,2.141-0.505c0.841-1.182-0.401-2.658-0.895-3.1
						c0,0,2.815-1.894-2.275-4.942c-5.089-3.049-12.104-5.261-21.678-1.924c-6.587,2.296-7.595,7.1-6.46,9.808
						C323.556,329.596,331.676,331.385,337.873,326.983z"/>
					<path style="fill:none;stroke:#924541;stroke-width:1.3836;stroke-miterlimit:10;" d="M344.983,325.89
						c-4.458-2.323-6.676-2.42-6.676-2.42"/>
					<path style="fill:none;stroke:#924541;stroke-width:1.3836;stroke-miterlimit:10;" d="M350.663,325.34
						c-6.728-4.467-10.448-4.655-10.448-4.655"/>
					<path style="fill:none;stroke:#924541;stroke-width:1.3836;stroke-miterlimit:10;" d="M351.908,321.735
						c-4.129-3.44-10.207-4.536-10.207-4.536"/>
				</g>
				
					<line style="fill:none;stroke:#924541;stroke-width:1.3836;stroke-miterlimit:10;" x1="284.382" y1="299.349" x2="279.165" y2="296.97"/>
			</g>
			<path style="fill:#FDBB3B;" d="M283.741,242.083c0,0-24.311,6.637-29.994,53.387c0,0,21.784,2.092,32.518-1.402l7.632-46.98
				L283.741,242.083z"/>
			<g>
				<polyline style="fill:none;stroke:#EC9E05;stroke-width:1.1065;stroke-miterlimit:10;" points="282.918,294.922 
					286.265,294.068 288.173,266.662 				"/>
				
					<line style="fill:none;stroke:#EC9E05;stroke-width:1.1065;stroke-miterlimit:10;" x1="287.781" y1="272.296" x2="290.724" y2="269.087"/>
			</g>
			<g>
				<g>
					<g>
						<path style="fill:#E8776E;" d="M303.868,242.833c14.494,3.834,22.956,7.159,20.921,1.448l-0.447-2.213l-0.114-0.574
							l-1.243-6.181l-1.199-5.936l-0.586-2.88l-15.458-1.366l-0.827,7.785l-0.342,3.207L303.868,242.833z"/>
					</g>
					<path style="opacity:0.5;fill:#924541;" d="M304.575,236.124c1.942,0.765,16.075,6.275,19.768,5.945l-0.114-0.574l-1.243-6.181
						l-17.377-8.829L304.575,236.124z"/>
				</g>
				<g>
					<g>
						<path style="fill:#E8776E;" d="M344.819,208.755c-0.04,0.599-0.08,1.185-0.133,1.798c-0.027,0.373-0.067,0.746-0.107,1.119
							c-0.253,2.411-0.626,4.609-1.092,6.58c-0.573,2.438-1.305,4.555-2.145,6.407c-0.679,1.491-1.439,2.81-2.264,3.969
							c-5.275,7.499-12.987,8.311-18.102,7.832c-5.901-0.546-14.892-3.437-17.822-15.384c-0.892-3.57-1.225-7.965-0.773-13.347
							c0.04-0.56,0.093-1.106,0.16-1.652c0.053-0.599,0.133-1.186,0.213-1.758c1.811-13.134,7.819-23.084,23.257-21.645
							C341.635,184.139,345.605,195.301,344.819,208.755z"/>
					</g>
				</g>
				<path style="fill:none;stroke:#924541;stroke-width:1.3836;stroke-miterlimit:10;" d="M328.081,222.564l7.62,0.743
					c-6.194-1.041-4.46-10.406-4.46-10.406"/>
				<g>
					<g>
						<g>
							<g>
								<path style="fill:#33324F;" d="M340.153,213.57c-0.145,1.421-1.054,2.492-2.031,2.392c-0.977-0.1-1.651-1.332-1.506-2.753
									c0.145-1.421,1.054-2.492,2.031-2.392C339.623,210.917,340.298,212.149,340.153,213.57z"/>
							</g>
						</g>
					</g>
					<g>
						<g>
							<g>
								<path style="fill:#33324F;" d="M323.609,211.882c-0.145,1.421-1.054,2.492-2.031,2.392c-0.977-0.1-1.651-1.332-1.506-2.753
									c0.145-1.421,1.054-2.492,2.031-2.392C323.08,209.229,323.754,210.461,323.609,211.882z"/>
							</g>
						</g>
					</g>
				</g>
				<g>
					<g>
						<g>
							<g>
								<path style="fill:#33324F;" d="M336.776,205.436c-1.248,1.692,4.69,3.744,5.664,2.086
									C343.414,205.865,338.066,203.686,336.776,205.436z"/>
							</g>
						</g>
					</g>
					<g>
						<g>
							<g>
								<path style="fill:#33324F;" d="M323.645,203.328c0.899,1.901-5.323,2.771-5.96,0.957
									C317.048,202.471,322.715,201.362,323.645,203.328z"/>
							</g>
						</g>
					</g>
				</g>
				<g>
					<path style="fill:#972A45;" d="M321.133,223.698c0.03,1.044,0.347,2.046,0.891,2.904c0.766,1.208,1.983,2.132,3.484,2.501
						c1.362,0.335,2.725,0.154,3.893-0.413c1.035-0.505,1.912-1.317,2.49-2.346L321.133,223.698z"/>
					<path style="fill:#DC3C5E;" d="M322.024,226.602c0.766,1.208,1.983,2.132,3.484,2.501c1.362,0.335,2.725,0.154,3.893-0.413
						c-0.407-1.219-1.683-2.31-3.373-2.725C324.482,225.584,322.977,225.865,322.024,226.602z"/>
				</g>
				<path style="fill:#33324F;" d="M347.31,206.034c-0.151,0.885-0.336,1.791-0.556,2.731c-0.515,2.23-1.215,4.605-2.114,7.151
					c-0.021,0.055-0.034,0.103-0.062,0.158c-2.807-4.53-0.762-15.229-0.762-15.229c-8.606-0.865-14.2-7.639-14.2-7.639
					c-6.108,2.938-15.325,1.936-15.325,1.936c-1.791,9.196-5.744,13.671-7.748,15.421c-0.48,0.419-1.222,0.069-1.222-0.563
					l-0.021-3.02l-3.784-2.107l2.069-8.234l2.487-7.754l10.992-7.024l17.014,0.961l5.792,5.209l6.438,7.659L347.31,206.034z"/>
				<g>
					<g>
						<path style="fill:#E8776E;" d="M307.839,207.682c-0.349-0.52-0.812-0.982-1.388-1.38c-1.656-1.137-3.385-1.64-4.935-1.429
							c-0.414,0.057-0.82,0.162-1.201,0.333c-0.674,0.276-1.299,0.714-1.842,1.323c-0.414,0.455-0.779,1.006-1.096,1.648
							c-0.844,1.721-1.055,3.49-0.747,5.162c0.381,2.013,1.542,3.88,3.328,5.349c0.528,0.438,1.12,0.771,1.729,0.99
							c1.972,0.731,4.188,0.373,5.422-1.144c0.138-0.089,0.268-0.211,0.357-0.365c0.073-0.097,0.13-0.219,0.171-0.349
							c0.024-0.081,0.049-0.154,0.073-0.235c0,0,0-0.008,0.008-0.016c0.162-0.52,0.333-1.08,0.487-1.664
							c0.349-1.291,0.625-2.687,0.649-4.042C308.91,210.344,308.651,208.875,307.839,207.682z"/>
					</g>
					<path style="fill:none;stroke:#924541;stroke-width:1.3836;stroke-miterlimit:10;" d="M304.701,216.688
						c0,0,2.948-9.61-4.684-7.145"/>
					
						<line style="fill:none;stroke:#924541;stroke-width:1.3836;stroke-miterlimit:10;" x1="305.233" y1="213.741" x2="301.936" y2="212.246"/>
				</g>
				<g>
					<path style="fill:#FFFFFF;" d="M315.064,191.473l-2.17,0.538c-0.245,0.061-0.384,0.32-0.299,0.558l1.906,5.338
						c0.069,0.193,0.266,0.31,0.468,0.278l0.626-0.098c0.218-0.034,0.374-0.229,0.36-0.449l-0.362-5.778
						C315.576,191.595,315.323,191.409,315.064,191.473z"/>
					<path style="fill:#FFFFFF;" d="M346.475,198.162l-1.94-1.11c-0.219-0.126-0.499-0.034-0.602,0.196l-2.312,5.176
						c-0.084,0.187-0.022,0.408,0.146,0.525l0.521,0.362c0.181,0.126,0.428,0.093,0.57-0.076l3.731-4.427
						C346.761,198.604,346.706,198.294,346.475,198.162z"/>
				</g>
			</g>
			<path style="fill:none;stroke:#EC9E05;stroke-width:1.1065;stroke-miterlimit:10;" d="M349.053,299.448"/>
			<g>
				<g>
					<path style="fill:none;stroke:#EC9E05;stroke-width:1.1065;stroke-miterlimit:10;" d="M349.053,299.448"/>
					<path style="fill:none;stroke:#EC9E05;stroke-width:1.1065;stroke-miterlimit:10;" d="M345.439,265.381"/>
					<path style="fill:none;stroke:#EC9E05;stroke-width:1.1065;stroke-miterlimit:10;" d="M346.762,269.846"/>
				</g>
			</g>
			<g>
				<g>
					<path style="fill:#FFFFFF;" d="M325.703,250.801c-0.057-0.372-0.392-0.502-0.678-0.442c-0.214-0.15-0.517-0.174-0.732,0.084
						c-2.569,3.079-4.596,6.889-5.021,10.936c-0.253,2.412,0.214,5.825,2.795,6.881c2.351,0.962,4.125-1.484,4.755-3.465
						C328.183,260.515,326.352,255.067,325.703,250.801z M321.293,266.233c-1.802-1.922-0.927-5.699-0.22-7.898
						c0.789-2.453,2.069-4.652,3.657-6.658c0.398,2.56,0.831,5.12,1.163,7.688c0.156,1.214,0.324,2.467,0.173,3.691
						C325.861,264.719,324.286,269.426,321.293,266.233z"/>
					<path style="fill:#FFFFFF;" d="M329.582,264.267c1.322,1.605,3.878,3.216,5.703,1.449c2.003-1.94,1.168-5.282,0.037-7.427
						c-1.899-3.599-5.197-6.383-8.727-8.286c-0.295-0.159-0.568-0.024-0.711,0.194c-0.288,0.05-0.551,0.295-0.465,0.662
						C326.401,255.062,326.726,260.8,329.582,264.267z M329.637,262.371c-0.595-1.081-0.906-2.306-1.211-3.491
						c-0.647-2.508-1.197-5.045-1.779-7.57c2.22,1.272,4.226,2.838,5.87,4.822c1.474,1.779,3.69,4.96,2.732,7.414
						C333.656,267.625,330.445,263.839,329.637,262.371z"/>
				</g>
				<path style="fill:#FFFFFF;" d="M327.923,257.996c-0.045-0.702-1.143-0.707-1.098,0c0.596,9.298,0.438,18.601-0.474,27.873
					c-0.069,0.703,1.029,0.698,1.098,0C328.361,276.597,328.52,267.294,327.923,257.996z"/>
				<path style="fill:#FFFFFF;" d="M326.595,259.036c-0.197-0.675,0.834-1.053,1.032-0.374c2.605,8.946,5.92,17.639,9.935,26.047
					c0.304,0.637-0.73,1.007-1.032,0.374C332.515,276.675,329.2,267.982,326.595,259.036z"/>
			</g>
		</g>
	</g>
	<g>
		<rect x="245.692" y="319.789" style="fill:#FFFFFF;" width="3.729" height="7.991"/>
		<rect x="245.692" y="334.093" style="fill:#FFFFFF;" width="3.729" height="7.99"/>
		
			<rect x="253.397" y="326.818" transform="matrix(6.123234e-17 -1 1 6.123234e-17 -75.552 586.0748)" style="fill:#FFFFFF;" width="3.729" height="7.991"/>
		
			<rect x="238.274" y="326.818" transform="matrix(6.123234e-17 -1 1 6.123234e-17 -90.6747 570.952)" style="fill:#FFFFFF;" width="3.729" height="7.991"/>
	</g>
	<g>
		<ellipse style="fill:#F47394;" cx="241.746" cy="358.952" rx="226.302" ry="24.322"/>
		<g>
			<g>
				<path style="fill:#E2E4E4;" d="M45.985,353.101v1.833c0,2.311,1.808,4.218,4.115,4.341l93.231,4.986
					c2.507,0.134,5.015-0.26,7.36-1.157l32.967-12.611c1.683-0.644,2.794-2.259,2.794-4.06v-4.85L45.985,353.101z"/>
				<g>
					<polygon style="fill:#CDCDCD;" points="147.135,356.54 186.453,341.583 74.122,338.224 45.985,353.101 					"/>
					<g>
						<polygon style="fill:#3F3E58;" points="167.02,346.903 161.456,348.979 160.543,349.324 154.971,351.4 154.058,351.739 
							154.051,351.739 146.749,354.47 145.292,351.474 145.174,351.231 145.108,351.099 145.005,350.885 142.679,346.115 
							156.649,346.564 156.657,346.564 157.665,346.601 157.672,346.601 						"/>
						<g>
							<g>
								<polygon style="fill:#CDCDCD;" points="161.456,348.979 160.543,349.324 151.099,349.03 150.084,349.001 145.233,348.853 
									145.248,348.485 150.996,348.662 152.019,348.692 								"/>
							</g>
							<g>
								<polygon style="fill:#CDCDCD;" points="154.971,351.4 154.058,351.739 154.051,351.739 145.292,351.474 145.174,351.231 
									144.99,351.297 144.917,351.091 145.108,351.099 145.49,351.113 								"/>
							</g>
							<g>
								<polygon style="fill:#CDCDCD;" points="157.665,346.601 152.027,348.692 152.019,348.692 151.107,349.03 151.099,349.03 
									145.49,351.113 145.174,351.231 144.99,351.297 144.917,351.091 144.857,350.936 145.005,350.885 150.084,349.001 
									150.996,348.662 156.649,346.564 156.657,346.564 								"/>
							</g>
						</g>
					</g>
				</g>
			</g>
			<g>
				<path style="fill:#E2E4E4;" d="M147.117,357.077l-101.15-3.439l-8.59-61.272c-0.922-6.576,3.591-11.727,10.079-11.507
					l77.653,2.64c6.488,0.221,12.495,5.73,13.417,12.305L147.117,357.077z"/>
				<circle style="fill:#FDBB3B;" cx="88.455" cy="326.241" r="7.276"/>
			</g>
		</g>
		<g>
			<g>
				<g>
					<g>
						<polygon style="fill:#00B0D1;" points="463.363,338.01 344.55,338.01 354.361,258.104 473.174,258.104 						"/>
						<polygon style="fill:#0088BB;" points="468.349,338.01 349.536,338.01 359.347,258.104 478.16,258.104 						"/>
					</g>
					<g>
						<polygon style="fill:#0088BB;" points="394.628,356.706 419.033,350.152 421.618,357.516 						"/>
						<path style="fill:#00B0D1;" d="M402.099,306.383h19.282l12.455,41.274c1.963,6.506-2.907,13.062-9.702,13.062h-7.033
							L402.099,306.383z"/>
						<path style="fill:#006891;" d="M405.531,306.383h19.282l13.346,44.229c1.519,5.034-2.249,10.107-7.508,10.107h-10.119
							L405.531,306.383z"/>
						<rect x="394.628" y="356.686" style="fill:#006891;" width="26.99" height="4.033"/>
					</g>
				</g>
				
					<ellipse transform="matrix(0.2306 -0.9731 0.9731 0.2306 36.8143 625.3724)" style="fill:#00B0D1;" cx="413.848" cy="289.407" rx="8.363" ry="8.363"/>
			</g>
			<g>
				<g>
					<g>
						<rect x="305.032" y="342.867" style="fill:#00B0D1;" width="11.09" height="4.411"/>
						<rect x="320.175" y="342.867" style="fill:#00B0D1;" width="11.09" height="4.411"/>
						<rect x="335.318" y="342.867" style="fill:#00B0D1;" width="11.09" height="4.411"/>
						<rect x="350.462" y="342.867" style="fill:#00B0D1;" width="11.09" height="4.411"/>
						<rect x="365.605" y="342.867" style="fill:#00B0D1;" width="11.09" height="4.411"/>
						<rect x="380.748" y="342.867" style="fill:#00B0D1;" width="11.09" height="4.411"/>
						<rect x="395.892" y="342.867" style="fill:#00B0D1;" width="11.09" height="4.411"/>
					</g>
					<rect x="302.622" y="345.734" style="fill:#006891;" width="106.57" height="6.059"/>
				</g>
				<g>
					<path style="fill:#0088BB;" d="M296.363,351.743h-38.371c-0.946,0-1.58-0.961-1.215-1.833
						c2.584-6.178,13.126-24.542,40.466-0.468C298.151,350.242,297.573,351.743,296.363,351.743z"/>
					
						<line style="fill:none;stroke:#00B0D1;stroke-width:2;stroke-miterlimit:10;" x1="297.243" y1="349.442" x2="283.727" y2="340.088"/>
				</g>
			</g>
		</g>
	</g>
	<g>
		<g>
			<g>
				<rect x="274.405" y="70.303" style="fill:#FFFFFF;" width="3.729" height="7.99"/>
				<rect x="274.405" y="84.608" style="fill:#FFFFFF;" width="3.729" height="7.991"/>
				
					<rect x="282.111" y="77.333" transform="matrix(6.123234e-17 -1 1 6.123234e-17 202.6473 365.3032)" style="fill:#FFFFFF;" width="3.729" height="7.99"/>
				
					<rect x="266.988" y="77.333" transform="matrix(6.123234e-17 -1 1 6.123234e-17 187.5246 350.1804)" style="fill:#FFFFFF;" width="3.729" height="7.991"/>
			</g>
			<g>
				<rect x="133.378" y="57.168" style="fill:#FFFFFF;" width="3.729" height="7.991"/>
				<rect x="133.378" y="71.473" style="fill:#FFFFFF;" width="3.729" height="7.99"/>
				
					<rect x="141.083" y="64.198" transform="matrix(6.123234e-17 -1 1 6.123234e-17 74.7546 211.1409)" style="fill:#FFFFFF;" width="3.729" height="7.991"/>
				
					<rect x="125.961" y="64.198" transform="matrix(6.123234e-17 -1 1 6.123234e-17 59.6319 196.0182)" style="fill:#FFFFFF;" width="3.729" height="7.991"/>
			</g>
			<g>
				<rect x="383.935" y="194.832" style="fill:#FFFFFF;" width="3.729" height="7.991"/>
				<rect x="383.935" y="209.137" style="fill:#FFFFFF;" width="3.729" height="7.99"/>
				
					<rect x="391.64" y="201.862" transform="matrix(6.123234e-17 -1 1 6.123234e-17 187.6474 599.3615)" style="fill:#FFFFFF;" width="3.729" height="7.991"/>
				
					<rect x="376.517" y="201.862" transform="matrix(6.123234e-17 -1 1 6.123234e-17 172.5246 584.2388)" style="fill:#FFFFFF;" width="3.729" height="7.991"/>
			</g>
			<g>
				<rect x="276.174" y="421.982" style="fill:#FFFFFF;" width="3.729" height="7.99"/>
				<rect x="276.174" y="436.286" style="fill:#FFFFFF;" width="3.729" height="7.991"/>
				
					<rect x="283.879" y="429.011" transform="matrix(6.123234e-17 -1 1 6.123234e-17 -147.2629 718.7507)" style="fill:#FFFFFF;" width="3.729" height="7.991"/>
				
					<rect x="268.757" y="429.012" transform="matrix(6.123234e-17 -1 1 6.123234e-17 -162.3856 703.6279)" style="fill:#FFFFFF;" width="3.729" height="7.99"/>
			</g>
			<g>
				<rect x="460.685" y="353.309" style="fill:#FFFFFF;" width="3.729" height="7.991"/>
				<rect x="460.685" y="367.614" style="fill:#FFFFFF;" width="3.729" height="7.991"/>
				
					<rect x="468.391" y="360.339" transform="matrix(6.123234e-17 -1 1 6.123234e-17 105.9209 834.5894)" style="fill:#FFFFFF;" width="3.729" height="7.991"/>
				
					<rect x="453.268" y="360.339" transform="matrix(6.123234e-17 -1 1 6.123234e-17 90.7981 819.4666)" style="fill:#FFFFFF;" width="3.729" height="7.991"/>
			</g>
			<g>
				<rect x="65.038" y="385.606" style="fill:#FFFFFF;" width="3.729" height="7.991"/>
				<rect x="65.038" y="399.911" style="fill:#FFFFFF;" width="3.729" height="7.991"/>
				
					<rect x="72.744" y="392.636" transform="matrix(6.123234e-17 -1 1 6.123234e-17 -322.0228 471.239)" style="fill:#FFFFFF;" width="3.729" height="7.991"/>
				
					<rect x="57.621" y="392.636" transform="matrix(6.123234e-17 -1 1 6.123234e-17 -337.1456 456.1162)" style="fill:#FFFFFF;" width="3.729" height="7.991"/>
			</g>
			<g>
				<rect x="119.969" y="226.99" style="fill:#FFFFFF;" width="3.729" height="7.991"/>
				<rect x="119.969" y="241.295" style="fill:#FFFFFF;" width="3.729" height="7.991"/>
				
					<rect x="127.675" y="234.02" transform="matrix(6.123234e-17 -1 1 6.123234e-17 -108.4758 367.5541)" style="fill:#FFFFFF;" width="3.729" height="7.991"/>
				
					<rect x="112.552" y="234.02" transform="matrix(6.123234e-17 -1 1 6.123234e-17 -123.5986 352.4313)" style="fill:#FFFFFF;" width="3.729" height="7.991"/>
			</g>
		</g>
		<g>
			<g>
				<g>
					<g>
						<g>
							<path style="fill:#E2E4E4;" d="M441.03,375.033v57.747c0,2.457-1.991,4.448-4.448,4.448h-94.147
								c-2.457,0-4.448-1.991-4.448-4.448v-57.747c0-2.457,1.991-4.448,4.448-4.448h94.147
								C439.04,370.585,441.03,372.576,441.03,375.033z"/>
						</g>
						<g>
							<path style="fill:#006891;" d="M441.03,375.033v4.602H337.988v-4.602c0-2.457,1.991-4.448,4.448-4.448h94.147
								C439.04,370.585,441.03,372.576,441.03,375.033z"/>
							<g>
								<path style="fill:#00AA80;" d="M358.344,375.11c0,1.401-1.135,2.536-2.536,2.536c-1.401,0-2.536-1.135-2.536-2.536
									c0-1.401,1.135-2.536,2.536-2.536C357.209,372.573,358.344,373.709,358.344,375.11z"/>
								<path style="fill:#FDBB3B;" d="M351.73,375.11c0,1.401-1.136,2.536-2.536,2.536s-2.536-1.135-2.536-2.536
									c0-1.401,1.135-2.536,2.536-2.536S351.73,373.709,351.73,375.11z"/>
								<path style="fill:#EB496F;" d="M344.946,375.11c0,1.401-1.135,2.536-2.536,2.536s-2.536-1.135-2.536-2.536
									c0-1.401,1.135-2.536,2.536-2.536S344.946,373.709,344.946,375.11z"/>
							</g>
						</g>
					</g>
					
						<text transform="matrix(1 0 0 1 351.7295 420.0788)" style="fill:#0088BB; font-family:'Montserrat-ExtraBold'; font-size:37.0946px;">C++</text>
				</g>
				<g>
					<g>
						<g>
							<path style="fill:#E2E4E4;" d="M407.582,60.805v44.775c0,1.905-1.544,3.449-3.449,3.449h-72.999
								c-1.905,0-3.449-1.544-3.449-3.449V60.805c0-1.905,1.544-3.449,3.449-3.449h72.999
								C406.038,57.356,407.582,58.9,407.582,60.805z"/>
						</g>
						<g>
							<path style="fill:#006891;" d="M407.582,60.805v3.568h-79.896v-3.568c0-1.905,1.544-3.449,3.449-3.449h72.999
								C406.038,57.356,407.582,58.9,407.582,60.805z"/>
							<g>
								<path style="fill:#00AA80;" d="M343.469,60.865c0,1.086-0.88,1.966-1.966,1.966c-1.086,0-1.966-0.88-1.966-1.966
									c0-1.086,0.88-1.966,1.966-1.966C342.589,58.898,343.469,59.779,343.469,60.865z"/>
								<path style="fill:#FDBB3B;" d="M338.34,60.865c0,1.086-0.88,1.966-1.966,1.966c-1.086,0-1.966-0.88-1.966-1.966
									c0-1.086,0.88-1.966,1.966-1.966C337.46,58.898,338.34,59.779,338.34,60.865z"/>
								<path style="fill:#EB496F;" d="M333.08,60.865c0,1.086-0.88,1.966-1.966,1.966c-1.086,0-1.966-0.88-1.966-1.966
									c0-1.086,0.88-1.966,1.966-1.966C332.2,58.898,333.08,59.779,333.08,60.865z"/>
							</g>
						</g>
					</g>
					
						<text transform="matrix(1 0 0 1 334.3174 92.9567)" style="fill:#FDBB3B; font-family:'Montserrat-ExtraBold'; font-size:22.1274px;">HTML</text>
				</g>
			</g>
			<g>
				<g>
					<path style="fill:#FDBB3B;" d="M99.721,231.665H53.435c-3.674,0-6.652-2.978-6.652-6.652v-46.286
						c0-3.674,2.978-6.652,6.652-6.652h46.286c3.674,0,6.652,2.978,6.652,6.652v46.286
						C106.372,228.686,103.394,231.665,99.721,231.665z"/>
					<g>
						<path style="fill:#FFFFFF;" d="M69.052,199.598l-8.294,2.847l8.294,2.846v4.653l-13.959-5.063v-4.871l13.959-5.064V199.598z"
							/>
						<path style="fill:#FFFFFF;" d="M78.494,188.979h5.474l-9.032,25.781h-5.474L78.494,188.979z"/>
						<path style="fill:#FFFFFF;" d="M98.063,200.009v4.871l-13.959,5.063v-4.653l8.293-2.846l-8.293-2.847v-4.653L98.063,200.009z"
							/>
					</g>
				</g>
				<g>
					<g>
						<path style="fill:#0088BB;" d="M452.472,200.731h-38.273c-3.038,0-5.5-2.462-5.5-5.5v-38.273c0-3.038,2.462-5.5,5.5-5.5
							h38.273c3.038,0,5.5,2.462,5.5,5.5v38.273C457.972,198.268,455.509,200.731,452.472,200.731z"/>
					</g>
					<g>
						<path style="fill:#FFFFFF;" d="M438.153,190.946c0.023,2.639-2.097,4.797-4.736,4.82c-2.639,0.023-4.797-2.097-4.82-4.736
							c-0.023-2.639,2.097-4.797,4.736-4.82C435.972,186.187,438.13,188.307,438.153,190.946z"/>
						<path style="fill:#FFFFFF;" d="M447.061,168.36c-8.122-6.122-19.415-6.023-27.427,0.241c-1.256,0.972-3.015,1.15-4.056,0.176
							l0,0c-1.039-0.968-0.713-2.992,0.887-4.24c9.843-7.695,23.716-7.817,33.693-0.296c1.622,1.22,1.983,3.237,0.962,4.224l0,0
							C450.096,169.457,448.333,169.311,447.061,168.36z"/>
						<path style="fill:#FFFFFF;" d="M442.502,175.968c-5.491-3.704-12.752-3.64-18.178,0.16c-1.286,0.886-3.043,1.072-4.094,0.107
							l0,0c-1.049-0.955-0.641-3.085,1.142-4.331c7.165-5.018,16.754-5.103,24.006-0.211c1.805,1.215,2.25,3.337,1.219,4.31l0,0
							C445.564,176.985,443.803,176.831,442.502,175.968z"/>
						<path style="fill:#FFFFFF;" d="M437.562,183.651c-2.674-1.337-5.853-1.309-8.503,0.075c-1.348,0.671-3.108,0.876-4.182-0.066
							l0,0c-1.076-0.924-0.459-3.326,1.798-4.503c4.111-2.145,9.041-2.189,13.189-0.116c2.277,1.139,2.937,3.529,1.877,4.471l0,0
							C440.685,184.471,438.921,184.298,437.562,183.651z"/>
					</g>
				</g>
				<g>
					<g>
						<g>
							<path style="fill:#0088BB;" d="M177.623,443.892h-41.416c-3.287,0-5.952-2.665-5.952-5.952v-41.416
								c0-3.287,2.665-5.952,5.952-5.952h41.416c3.287,0,5.952,2.665,5.952,5.952v41.416
								C183.575,441.228,180.91,443.892,177.623,443.892z"/>
						</g>
					</g>
					
						<text transform="matrix(1 0 0 1 134.9351 425.2751)" style="fill:#FFFFFF; font-family:'Montserrat-ExtraBold'; font-size:20.809px;">CSS</text>
				</g>
			</g>
			<g>
				<g>
					<g>
						<g>
							<path style="fill:#FFFFFF;" d="M281.092,169.41h79.645c4.639,0,8.399-3.76,8.399-8.399v-18.237
								c0-4.639-3.76-8.399-8.399-8.399h-79.645c-4.639,0-8.399,3.76-8.399,8.399v18.237
								C272.693,165.649,276.454,169.41,281.092,169.41z"/>
							<polygon style="fill:#FFFFFF;" points="272.693,161.077 272.693,182.99 283.698,168.468 							"/>
						</g>
					</g>
					
						<text transform="matrix(1 0 0 1 282.0586 157.5163)" style="fill:#0088BB; font-family:'Montserrat-ExtraBold'; font-size:19.9072px;">phyton</text>
				</g>
				<g>
					<g>
						<g>
							<path style="fill:#FFFFFF;" d="M287.741,394.002h-79.645c-4.639,0-8.399-3.76-8.399-8.399v-18.237
								c0-4.639,3.76-8.399,8.399-8.399h79.645c4.639,0,8.399,3.76,8.399,8.399v18.237
								C296.14,390.242,292.38,394.002,287.741,394.002z"/>
							<polygon style="fill:#FFFFFF;" points="296.14,385.669 296.14,407.582 285.135,393.06 							"/>
						</g>
					</g>
					
						<text transform="matrix(1 0 0 1 209.062 382.109)" style="fill:#FDBB3B; font-family:'Montserrat-ExtraBold'; font-size:19.9072px;">&lt;code&gt;</text>
				</g>
			</g>
		</g>
	</g>
</g>
</svg>
