<?xml version="1.0" encoding="utf-8"?>
<!-- Generator: Adobe Illustrator 27.5.0, SVG Export Plug-In . SVG Version: 6.00 Build 0)  -->
<svg version="1.1" id="Слой_2" xmlns="http://www.w3.org/2000/svg" xmlns:xlink="http://www.w3.org/1999/xlink" x="0px" y="0px"
	 viewBox="0 0 3200 2000" style="enable-background:new 0 0 3200 2000;" xml:space="preserve">
<rect style="fill:#FFFFFF;" width="3200" height="2000"/>
<g>
	<path style="fill:#EDF4FF;" d="M370.799,1651.274c0.128,0.091,2480.42-0.295,2480.42-0.295s7.17-14.689,16.151-33.915
		c6.656-14.249,14.902-33.165,23.467-55.933v-0.009c1.598-4.232,3.205-8.6,4.813-13.096c2.252-6.312,4.514-12.868,6.757-19.661
		c0.835-2.516,1.662-5.067,2.488-7.646c4.959-15.483,9.78-32.103,14.23-49.685c0.309-1.226,0.617-2.461,0.927-3.696
		c1.662-6.729,3.27-13.604,4.822-20.605c0.854-3.887,1.68-7.819,2.497-11.778l0.163-0.817c0.3-1.472,0.591-2.942,0.881-4.423
		c5.576-28.262,9.89-58.375,12.097-89.807c0.391-5.53,0.708-11.105,0.963-16.728c0.263-5.667,0.444-11.379,0.554-17.128
		c0.69-35.689-1.544-72.732-7.837-110.366c-2.461-14.739-5.54-29.568-9.317-44.444c-2.761-10.87-5.885-21.74-9.418-32.647
		c-0.654-2.025-1.308-4.06-2.007-6.094c-8.155-24.274-18.299-48.54-30.704-72.633c-1.107-2.161-2.243-4.341-3.406-6.512
		c-9.299-17.464-19.824-34.827-31.648-51.991c-1.207-1.762-2.434-3.514-3.678-5.267c-6.902-9.771-14.24-19.479-22.041-29.124
		c-11.342-14.058-23.693-27.943-37.043-41.638c-18.489-18.962-36.825-36.162-54.996-51.719c-7.475-6.43-14.931-12.569-22.35-18.444
		c-6.357-5.049-12.705-9.89-19.017-14.53c-0.354-0.264-0.727-0.527-1.081-0.79c-14.621-10.743-29.115-20.47-43.464-29.26
		c-2.933-1.789-5.849-3.551-8.781-5.276c-14.085-8.3-28.044-15.711-41.856-22.313c-3.016-1.444-6.021-2.852-9.026-4.214
		c-94.502-43.01-182.101-48.613-259.593-41.484c-59.91,5.512-113.79,18.644-160.133,28.007c-3.042,0.618-6.048,1.217-9.026,1.798
		c-30.169,5.857-56.959,9.717-79.944,8.219c-36.688-2.398-66.603-24.692-98.751-57.567c-2.343-2.397-4.695-4.84-7.065-7.347
		c-18.735-19.797-38.433-42.882-60.809-67.466c-4.078-4.486-8.256-9.018-12.533-13.595c-8.454-9.045-17.3-18.254-26.608-27.526
		c-1.435-1.435-2.878-2.861-4.341-4.295c-3.142-3.088-6.348-6.185-9.607-9.281c-1.436-1.371-2.879-2.743-4.342-4.105
		c-10.579-9.926-21.75-19.861-33.609-29.723c-51.165-42.528-115.189-83.522-199.91-114.871c-0.045-0.018-0.081-0.027-0.117-0.045
		c-35.791-13.241-75.276-24.747-119.04-33.928c-48.077-10.089-99.723-17.618-152.741-22.022
		c-12.777-1.063-25.627-1.943-38.532-2.633c-13.849-0.736-27.753-1.263-41.675-1.553c-8.354-0.172-16.719-0.263-25.083-0.272
		c-20.687-0.036-41.384,0.463-61.953,1.517c-7.301,0.363-14.584,0.799-21.841,1.308c-88.998,6.239-174.745,23.085-247.096,53.199
		c-50.747,21.105-241.938,115.543-298.034,275.294c-17.718,50.42-21.968,107.342-4.105,170.522
		c63.225,223.566-33.038,251.392-153.485,357.935C293.625,1361.06,241.861,1552.922,370.799,1651.274z"/>
	<g>
		<path style="fill:#DBE7F7;" d="M1712.188,643.121c-65.015,8.423-133.15,7.681-202.515-2.205
			c-70.065-9.984-137.967-8.16-201.822,5.428c-51.11,10.875-99.749,29.265-144.564,54.659c-61.104,34.624-97.351,80.3-110.807,97.39
			c13.233-16.786,54.183-57.539,114.439-91.63c44.195-25.005,92.158-43.109,142.558-53.811
			c63.008-13.38,130.042-15.163,199.237-5.302c69.974,9.973,138.728,10.717,204.349,2.216
			c52.522-6.805,103.171-19.515,150.534-37.778c80.752-31.136,120.236-73.402,120.671-73.773
			c-0.425,0.364-43.44,36.705-123.117,67.427C1814.291,623.81,1764.174,636.386,1712.188,643.121z"/>
		<path style="fill:#DBE7F7;" d="M1712.188,598.369c-65.015,8.423-133.15,7.681-202.515-2.204
			c-70.065-9.985-137.967-8.16-201.822,5.427c-51.11,10.875-99.749,29.265-144.564,54.66c-61.104,34.623-97.351,80.3-110.807,97.389
			c13.233-16.786,54.183-57.539,114.439-91.63c44.195-25.005,92.158-43.109,142.558-53.811
			c63.008-13.38,130.042-15.163,199.237-5.302c69.974,9.973,138.728,10.717,204.349,2.217
			c52.522-6.805,103.171-19.515,150.534-37.778c80.752-31.136,120.236-73.402,120.671-73.773
			c-0.425,0.364-43.44,36.705-123.117,67.427C1814.291,579.059,1764.174,591.635,1712.188,598.369z"/>
		<path style="fill:#DBE7F7;" d="M1712.188,546.187c-65.015,8.423-133.15,7.681-202.515-2.204
			c-70.065-9.984-137.967-8.16-201.822,5.427c-51.11,10.875-99.749,29.265-144.564,54.66c-61.104,34.624-97.351,80.3-110.807,97.389
			c13.233-16.786,54.183-57.539,114.439-91.63c44.195-25.005,92.158-43.109,142.558-53.811
			c63.008-13.38,130.042-15.163,199.237-5.302c69.974,9.973,138.728,10.717,204.349,2.217
			c52.522-6.805,103.171-19.515,150.534-37.778c80.752-31.136,120.236-73.402,120.671-73.773
			c-0.425,0.364-43.44,36.705-123.117,67.427C1814.291,526.877,1764.174,539.453,1712.188,546.187z"/>
		<path style="fill:#DBE7F7;" d="M1166.918,560.038c44.195-25.004,92.158-43.109,142.558-53.81
			c63.008-13.38,130.042-15.163,199.237-5.302c69.974,9.973,138.728,10.717,204.349,2.216
			c52.522-6.805,103.171-19.515,150.534-37.778c80.752-31.136,120.236-73.402,120.671-73.773
			c-0.425,0.364-43.44,36.705-123.117,67.427c-46.858,18.068-96.976,30.644-148.962,37.378
			c-65.015,8.423-133.15,7.681-202.515-2.205c-70.065-9.984-137.967-8.16-201.822,5.427c-51.11,10.875-99.749,29.265-144.564,54.66
			c-61.104,34.624-97.351,80.3-110.807,97.39C1065.713,634.882,1106.662,594.129,1166.918,560.038z"/>
	</g>
	<g>
		<path style="fill:#2C3A64;" d="M2413.125,1645.305h123.77c0,0,2.361-20.139-0.481-37.348c-0.343-2.096-1.433-3.977-3.058-5.644
			c-7.247,2.458-17.893,4.189-29.736-0.064c-9.706-3.484-16.889-8.786-21.891-13.618c-1.283,1.24-26.852,25.611-38.674,25.611
			C2430.934,1614.242,2412.42,1620.078,2413.125,1645.305z"/>
		<path style="fill:#2C3A64;" d="M2242.387,1645.305h123.769c0,0,2.362-20.139-0.481-37.348c-0.342-2.096-1.432-3.977-3.057-5.644
			c-7.247,2.458-17.894,4.189-29.736-0.064c-9.706-3.484-16.89-8.786-21.892-13.618c-1.283,1.24-26.852,25.611-38.673,25.611
			C2260.195,1614.242,2241.681,1620.078,2242.387,1645.305z"/>
		<path style="fill:#35488B;" d="M2296.387,1594.701c0,0,49.281,23.696,78.356,7.729c0,0,11.484-40.244,25.246-98.781
			c11.412-48.458,24.375-109.454,33.702-170.523c0.497-3.211,0.981-6.724,1.43-10.503c7.512-61.555,7.293-190.864-117.704-156.616
			L2296.387,1594.701z"/>
		<path style="fill:#2C3A64;" d="M2399.989,1503.649c11.412-48.458,24.375-109.454,33.702-170.523
			c0.497-3.211,0.981-6.724,1.43-10.503c-7.498-43.262-19.334-77.86-33.326-82.088
			C2401.795,1240.535,2352.501,1449.521,2399.989,1503.649z"/>
		<path style="fill:#FFB27D;" d="M2733.977,1167.193c3.787-2.869-14.404-18.813-23.994-21.427
			c-8.18-2.229-15.615-7.584-17.632-9.115c-0.113-0.333-0.262-0.655-0.487-0.954c-4.792-6.353-82.053-93.619-82.053-93.619
			c-9.441-40.443-56.49-137.272-56.49-137.272s-50.086-30.918-63.13,4.068c-13.043,34.985,57.116,128.563,77.448,157.601
			c20.331,29.039,107.217,90.141,107.217,90.141s0.094-0.063,0.263-0.179c2.85,4.856,12.411,20.302,25.082,31.698
			c15.218,13.688,25.662,15.377,31.63,11.546c5.969-3.832-11.795-26.965-9.605-31.674
			C2724.416,1163.3,2730.19,1170.063,2733.977,1167.193z"/>
		<path style="fill:#FFB27D;" d="M2405.184,895.41c-15.097-34.15-63.261-0.315-63.261-0.315s-41.221,99.45-48.245,140.382
			c0,0-71.946,91.698-76.353,98.323c-0.208,0.312-0.337,0.643-0.43,0.981c-1.922,1.648-9.026,7.435-17.06,10.146
			c-9.418,3.179-26.631,20.174-22.682,22.813c3.949,2.64,9.313-4.453,11.779,0.116c2.467,4.57-13.894,28.717-7.709,32.188
			c6.186,3.471,16.511,1.165,30.891-13.402c11.971-12.128,20.6-28.113,23.156-33.131c0.176,0.105,0.273,0.163,0.273,0.163
			s83.106-66.149,101.679-96.344S2420.279,929.56,2405.184,895.41z"/>
		<path style="fill:#35488B;" d="M2541.873,1164.679c5.398,0.757-14.992,236.706-4.059,280.994s0.034,163.963,0.034,163.963
			s-41.931,12.07-87.282-5.125c0,0-14.111-143.6-26.111-184.736c-25.845-88.591-39.201-247.804-39.201-247.804L2541.873,1164.679z"
			/>
		<path style="fill:#FFB27D;" d="M2385.254,879.22l65.314,33.382l13.088-45.313c0,0-8.321-15.68-12.085-41.368
			c-1.575-10.802-2.355-23.375-1.352-37.298l-53.216,27.249c0,0,1.269,4.92,2.118,12.182c0.906,7.847,1.311,18.426-0.92,28.476
			C2396.279,865.157,2392.418,873.394,2385.254,879.22z"/>
		<path style="fill:#EA9C68;" d="M2398.202,856.529c30.26-0.809,53.369-30.608,53.369-30.608l-52.449,2.132
			C2400.028,835.9,2400.433,846.479,2398.202,856.529z"/>
		<g>
			<path style="fill:#FFB27D;" d="M2383.523,839.669c0,0,60.361,15.938,81.184-32.061c22.471-51.801-2.181-89.541-22.679-92.087
				c-40.875-5.077-64.618,10.509-71.802,26.984C2363.043,758.979,2350.219,831.173,2383.523,839.669z"/>
			<path style="fill:#2C3A64;" d="M2504.704,706.58c4.265-0.407,7.564,1.806,7.564,1.806c-2.704-4.405-7.29-5.66-10.365-5.981
				c-0.089-0.122-0.171-0.246-0.262-0.366c0.212-3.131-0.044-6.77-1.608-9.873c0,0-0.06,3.247-0.84,6.845
				c-8.055-9.369-19.789-17.041-35.578-22.039c-74.322-23.527-118.18,37.383-100.102,52.972c18.077,15.589,59.312,2.81,70.459,1.563
				c11.146-1.246,14.429,38.221,16.531,40.553c2.104,2.333,7.056-9.551,16.234-4.58c9.178,4.971-6.574,25.056-6.574,25.056
				c0.848,11.09-6.234,31.865-6.234,31.865C2504.369,794.162,2525.991,741.711,2504.704,706.58z"/>
			<path style="fill:#FFFFFF;" d="M2397.154,811.582c0-4.015-5.809-6.752-9.691-7.773c-5.754-1.515-10.499,1.033-10.499,5.047
				c0,4.015,4.275,10.5,8.29,10.5C2389.268,819.356,2397.154,815.596,2397.154,811.582z"/>
		</g>
		<path style="fill:#FFB93E;" d="M2548.985,895.297c-31.11-15.822-59.397-24.29-85.334-27.997
			c-9.922,10.164-29.523,25.125-51.45,22.266c-16.477-2.156-19.088-10.731-18.798-20.119c-34.453,5.669-53.586,15.455-53.586,15.455
			l-0.001,0.004c-0.096,0.157-26.645,43.546-37.644,92.33c0,0,7.368,21.367,21.441,31.692l-20.347,155.745
			c-1.357,16.9-4.228,38.185,12.103,42.631c47.174,12.805,114.506,10.77,162.177,6.894c25.755-2.097,45.768-4.737,53.775-5.863
			c3.404-0.473,5.258-0.775,5.258-0.775c8.031-1.938,13.495-9.135,13.495-17.118c0-1.029-0.097-2.084-0.29-3.125l-21.527-119.582
			l5.306-44.036c15.664-6.833,28.833-15.7,38.948-23.866c14.985-12.078,23.32-22.593,23.32-22.593
			C2578.266,915.649,2548.985,895.297,2548.985,895.297z"/>
		<path style="fill:#FFA412;" d="M2477.547,1214.198c25.755-2.096,45.768-4.737,53.775-5.863c3.404-0.473,5.258-0.775,5.258-0.775
			c8.031-1.938,13.495-9.135,13.495-17.118c0-1.029-0.097-2.084-0.29-3.125l-21.527-119.582l5.306-44.036
			c0,0-35.858,40.571-40.099,84.184C2490.206,1141.414,2469.757,1190.356,2477.547,1214.198z"/>
		<path style="fill:#FFA412;" d="M2548.985,895.297c0,0,2.096,90.119,23.526,104.536c14.985-12.078,23.32-22.593,23.32-22.593
			C2578.266,915.649,2548.985,895.297,2548.985,895.297z"/>
	</g>
	<g>
		<path style="fill:#2C3A64;" d="M1865.866,1644.722h-123.769c0,0-2.362-20.139,0.481-37.349c0.342-2.095,1.432-3.976,3.057-5.644
			c7.247,2.459,17.894,4.19,29.737-0.063c9.705-3.485,16.889-8.787,21.891-13.618c1.283,1.239,26.852,25.611,38.674,25.611
			C1848.059,1613.659,1866.572,1619.495,1865.866,1644.722z"/>
		<path style="fill:#2C3A64;" d="M2036.605,1644.722h-123.77c0,0-2.362-20.139,0.481-37.349c0.342-2.095,1.433-3.976,3.057-5.644
			c7.247,2.459,17.894,4.19,29.737-0.063c9.706-3.485,16.889-8.787,21.891-13.618c1.283,1.239,26.852,25.611,38.674,25.611
			C2018.797,1613.659,2037.311,1619.495,2036.605,1644.722z"/>
		<path style="fill:#35488B;" d="M1982.605,1594.118c0,0-49.282,23.695-78.357,7.729c0,0-11.484-40.244-25.246-98.781
			c-11.412-48.458-24.374-109.454-33.702-170.523c-0.497-3.21-0.981-6.724-1.43-10.503c-7.511-61.554-7.293-190.863,117.704-156.615
			L1982.605,1594.118z"/>
		<path style="fill:#2C3A64;" d="M1879.002,1503.065c-11.412-48.458-24.374-109.454-33.702-170.523
			c-0.497-3.21-0.981-6.724-1.43-10.503c7.499-43.261,19.335-77.859,33.327-82.088
			C1877.197,1239.951,1926.49,1448.938,1879.002,1503.065z"/>
		<path style="fill:#35488B;" d="M1737.119,1164.096c-5.398,0.756,14.991,236.706,4.058,280.994s-0.034,163.963-0.034,163.963
			s41.931,12.07,87.282-5.125c0,0,14.111-143.601,26.112-184.736c25.844-88.591,39.201-247.804,39.201-247.804L1737.119,1164.096z"
			/>
		<path style="fill:#FFB27D;" d="M1893.738,878.637l-65.314,33.381l-13.088-45.313c0,0,8.32-15.681,12.084-41.369
			c1.575-10.802,2.355-23.374,1.353-37.298l53.216,27.249c0,0-1.269,4.92-2.119,12.182c-0.905,7.847-1.31,18.427,0.92,28.476
			C1882.713,864.573,1886.573,872.81,1893.738,878.637z"/>
		<path style="fill:#FFB93E;" d="M1963.621,1206.722c-47.173,12.805-114.506,10.77-162.176,6.894
			c-25.756-2.097-45.769-4.737-53.776-5.864c-3.403-0.472-5.258-0.774-5.258-0.774c-8.031-1.938-13.495-9.135-13.495-17.118
			c0-1.03,0.097-2.084,0.291-3.126l21.527-119.582l-5.307-44.035l-1.926-16.004l-4.107-34.235l-9.389-78.163
			c31.11-15.821,59.397-24.29,85.334-27.997c9.923,10.164,29.523,25.125,51.451,22.267c16.476-2.156,18.811-11.23,18.52-20.619
			c34.454,5.67,53.864,15.955,53.864,15.955l36.549,279.772C1977.081,1180.99,1979.952,1202.275,1963.621,1206.722z"/>
		<path style="fill:#EA9C68;" d="M1880.789,855.945c-30.26-0.808-53.369-30.608-53.369-30.608l52.449,2.132
			C1878.964,835.317,1878.56,845.896,1880.789,855.945z"/>
		<g>
			<path style="fill:#FFB27D;" d="M1895.468,839.086c0,0-60.361,15.938-81.183-32.061c-22.472-51.801,2.181-89.542,22.679-92.087
				c40.875-5.076,64.617,10.51,71.801,26.984C1915.948,758.396,1928.773,830.59,1895.468,839.086z"/>
			<g>
				<path style="fill:#AA443E;" d="M1825.062,823.817c0,0-7.082-20.775-6.233-31.864c0,0-15.753-20.085-6.574-25.057
					c9.178-4.971,14.13,6.913,16.233,4.58c2.103-2.332,5.386-41.8,16.532-40.553c11.146,1.246,52.381,14.025,70.458-1.564
					c18.078-15.589-25.778-76.499-100.102-52.972S1756.229,782.551,1825.062,823.817z"/>
				<path style="fill:#AA443E;" d="M1778.711,708.795c0,0-3.368-10.041,0.247-17.213c0,0,0.178,9.879,4.058,14.275
					C1786.895,710.253,1778.711,708.795,1778.711,708.795z"/>
				<path style="fill:#AA443E;" d="M1780.258,701.773c0,0-9.194-1.042-13.534,6.029c0,0,6.476-4.379,13.023,0.264L1780.258,701.773z
					"/>
			</g>
			<path style="fill:#FFFFFF;" d="M1881.837,810.998c0-4.015,5.81-6.752,9.691-7.773c5.755-1.514,10.499,1.033,10.499,5.048
				c0,4.014-4.275,10.499-8.289,10.499C1889.724,818.772,1881.837,815.013,1881.837,810.998z"/>
		</g>
		<path style="fill:#415BA3;" d="M1857.93,1303.759c0,0-117.11,12.114-152.642-34.732c0,0,8.686-35.108,16.887-81.651
			c6.434-36.465,12.575-79.943,14.017-119.037c3.465-93.887-16.741-165.031-6.19-173.625c21.749-17.713,75.364-26.349,75.364-26.349
			s91.161,196.533,94.287,206.225C1902.777,1084.28,1857.93,1303.759,1857.93,1303.759z"/>
		<path style="fill:#415BA3;" d="M2018.24,1055.941c-6.057-35.002-51.688-149.542-79.065-171.622
			c-8.221-6.63-40.095-13.299-40.095-13.299l-11.271,201.751l38.362,232.391c0,0,60.572-4.639,77.532-48.25l-26.813-154.816
			C1998.063,1091.829,2021.664,1075.725,2018.24,1055.941z"/>
		<path style="fill:#2C3A64;" d="M1876.501,1077.214c0-3.568,2.893-6.461,6.462-6.461c3.568,0,6.461,2.893,6.461,6.461
			s-2.893,6.461-6.461,6.461C1879.394,1083.675,1876.501,1080.782,1876.501,1077.214z"/>
		<g>
			<path style="fill:#AA443E;" d="M1942.63,1018.254l-65.418,108.154c0,0,100.954,14.477,103.376,12.861
				c2.423-1.615,56.839-99.743,56.839-99.743L1942.63,1018.254z"/>
			<polygon style="fill:#93322F;" points="2037.427,1039.526 2073.062,1018.254 2016.396,1127.736 1980.588,1139.27 			"/>
		</g>
		<path style="fill:#FFB27D;" d="M1867.416,1107.904c0,0,26.206,16.152,44.499,8.076c18.294-8.076,0.293-18.172-12.108-23.422
			c0,0,12.088-4.946,12.108-8.884c0.021-3.937-9.601-2.737-15.728,0c-6.128,2.737-35.738,3.087-35.738,3.087L1867.416,1107.904z"/>
		<path style="fill:#35488B;" d="M1854.538,1109.346c0,0-59.785,72.263-132.363,78.029c6.434-36.465,12.575-79.943,14.017-119.037
			C1750.729,1067.15,1854.538,1109.346,1854.538,1109.346z"/>
		<path style="fill:#35488B;" d="M1761.01,977.472c1.738-1.688,80.764,75.109,71.072,113.876
			C1822.39,1130.113,1693.597,1042.924,1761.01,977.472z"/>
		<path style="fill:#415BA3;" d="M1876.501,1125.264c-69.452,8.081-146.5-21.709-146.5-21.709
			c-48.36-95.207-1.428-206.936-1.428-206.936s78.476,40.471,73.97,63.088c-1.151,5.803-2.375,14.271-3.55,23.72
			c-3.429,27.391-6.493,63.02-6.493,65.721c0,3.635,69.464,28.069,69.464,28.069c2.048,1.685,3.816,4.083,5.33,6.905
			C1875.217,1098.83,1876.501,1125.264,1876.501,1125.264z"/>
	</g>
	<g>
		<path style="fill:#AA443E;" d="M865.895,786.143c0,0-21.962-46.185-75.013-18.696c-53.051,27.489-1.401,132.288-29.244,158.172
			c-27.842,25.884,10.089,42.832,4.44,61.395c-5.649,18.563,10.491,39.67,47.616,37.187c37.124-2.483,76.217-0.481,92.988-32.958
			c16.771-32.476,12.959-103.944,6.479-113.988C906.682,867.21,865.895,786.143,865.895,786.143z"/>
		<path style="fill:#FFB27D;" d="M951.863,1032.542l-90.206-54.434c0.5-0.2,2.323-2.922,9.068-22.433
			c2.873-8.319,4.396-15.538,5.146-21.259c0.075-0.575,0.15-1.124,0.2-1.674c0.924-8.319,0.25-13.115,0.25-13.115l19.76,7.145
			l36.547,13.24c-0.425,9.268,0.875,15.788,2.848,20.26c4.771,10.867,13.664,10.941,13.914,10.941L951.863,1032.542z"/>
		<path style="fill:#ED985F;" d="M935.475,960.272c-35.323,2.997-55.208-20.035-59.604-25.855c-0.649-0.85-0.975-1.324-0.975-1.324
			s0.425-0.125,1.174-0.35c2.873-0.85,10.667-3.198,20.01-5.97l36.547,13.24C932.203,949.28,933.502,955.8,935.475,960.272z"/>
		<path style="fill:#FFB27D;" d="M937.245,947.585c0,0-78.476,8.62-80.082-44.443c-1.607-53.063-13.208-77.345,41.089-82.073
			c54.297-4.728,67.122,14.828,70.322,32.781C978.569,909.935,959.353,945.206,937.245,947.585z"/>
		<path style="fill:#D35C2B;" d="M790.882,767.446c-1.096-2.451-1.876-4.048-1.876-4.048
			C789.823,764.531,790.436,765.905,790.882,767.446z"/>
		<path style="fill:#AA443E;" d="M902.47,846.99c-27.768-7.03-17.149,42.169-24.167,38.8c-7.852-3.769-21.341-3.711-19.212,5.767
			c2.129,9.478,5.202,12.868,6.804,18.787c1.603,5.918-0.012,17.637-6.468,15.275c-6.456-2.362-66.511-70.934-24.109-124.348
			c42.402-53.414,168.84-20.508,129.026,35.362C957.342,846.458,922.243,851.996,902.47,846.99z"/>
		<path style="fill:#FFB27D;" d="M1135.1,949.359c-2.758-6.849-12.125-5.556-19.135,2.389c-6.443,7.302-6.168,27.335-6.082,30.534
			c-8.147,10.132-34.846,38.777-49.955,51.984c-3.313,2.895-9.24,1.896-12.537-1.018c-8.531-7.537-23.323-20.253-31.178-24.944
			c-11.461-6.846-75.472-50.355-83.8-31.846c0,0,4.633,71.206,108.098,113.989c10.127,4.188,21.74,3.054,30.844-3.047
			c15.697-10.519,39.997-35.203,56.762-98.35C1128.116,989.051,1143.744,970.821,1135.1,949.359z"/>
		<path style="fill:#FFB27D;" d="M1005.03,1610.049l-41.492,11.012c0,0-25.501-88.835-30.916-150.559
			c-0.836-9.364-1.187-18.099-0.933-25.815c1.199-35.326-73.85-182.577-22.533-216.038c35.313-23.018,86.606-3.828,86.606-3.828
			s7.147,187.156,7.147,222.289c0,4.785,0.037,11.278,0.097,18.935C1003.443,1514.659,1005.03,1610.049,1005.03,1610.049z"/>
		<path style="fill:#FFB27D;" d="M926.189,1235.894c0,0-33.799,190.221-41.88,232.67c-0.666,3.429-1.151,5.899-1.429,7.221
			c-3.816,17.663-22.921,138.649-22.921,138.649l-41.286-2.168c0,0-12.441-88.92-9.812-152.715
			c0.654-15.615,2.205-29.729,5.064-40.668c14.537-55.582-19.044-192.947,34.09-225.185
			C901.148,1161.462,926.189,1235.894,926.189,1235.894z"/>
		<path style="fill:#FFFFFF;" d="M932.412,916.739c0-3.284,7.19-6.161,12.266-6.161s11.837,3.109,11.509,5.452
			c-0.757,5.408-6.434,9.899-11.509,9.899S932.412,921.815,932.412,916.739z"/>
		<path style="fill:#FFB27D;" d="M820.279,985.841c0,0-59.356,118.429-73.893,132.966c-14.538,14.537-65.822,61.38-83.59,74.569
			c0,0-54.515,15.574-53.304,21.989c1.211,6.414,37.958,5.203,41.997,6.818c4.038,1.615-8.076,11.711,2.019,11.307
			c6.625-0.265,13.251-12.009,17.023-20.051l0,0c0,0,92.815-45.367,106.545-52.636c13.729-7.269,54.919-58.957,62.188-80.763
			C846.532,1058.234,820.279,985.841,820.279,985.841z"/>
		<path style="fill:#F99746;" d="M1035.062,1074.092c11.061-27.354,4.495-55.229,4.495-55.229
			c-38.415-43.37-62.522-47.412-70.664-47.283c-26.967-5.042-76.897-1.53-104.151,0.999c0.026-0.437,0.04-0.671,0.04-0.671
			s-43.842,3.404-56.284,17.918c0,0-0.024,0.012-0.049,0.048c-12.49,14.61-56.78,88.956-56.78,88.956s-2.108,18.159,18.051,37.87
			c7.208,7.038,17.251,14.283,31.267,20.958c3.763,1.794,7.313,2.503,10.661,2.276l0,0.001l-41.032,198.811
			c15.24,24.896,46.98,41.141,83.287,51.135c75.728,20.837,171.347,14.525,178.713,3.065c7.567-47.817-3.479-185.484-18.774-289.751
			C1024.263,1094.583,1030.915,1084.381,1035.062,1074.092z"/>
		<path style="fill:#AA443E;" d="M884.309,1468.563c-0.666,3.429-1.151,5.899-1.429,7.221
			c-3.816,17.663-22.921,138.649-22.921,138.649l-41.286-2.168c0,0-12.441-88.92-9.812-152.715
			C819.703,1464.663,841.581,1470.345,884.309,1468.563z"/>
		<path style="fill:#35488B;" d="M918.868,1645.209H815.531c0,0-1.973-16.987,0.401-31.504c0.286-1.768,1.196-3.354,2.552-4.761
			c6.051,2.074,14.94,3.534,24.828-0.054c8.104-2.939,15.33-8.4,19.506-12.477c1.071,1.046,21.19,22.593,31.061,22.593
			C903.999,1619.007,919.457,1623.93,918.868,1645.209z"/>
		<path style="fill:#AA443E;" d="M1005.03,1610.049l-41.492,11.012c0,0-25.501-88.835-30.916-150.559
			c17.081,1.224,46.774,2.145,70.385-4.458C1003.443,1514.659,1005.03,1610.049,1005.03,1610.049z"/>
		<path style="fill:#35488B;" d="M1061.819,1645.209H958.481c0,0-1.973-16.987,0.401-31.504c0.286-1.768-0.022-3.287,1.334-4.693
			c6.051,2.073,16.158,3.467,26.046-0.121c8.104-2.939,14.371-8.253,18.547-12.328c1.071,1.046,22.149,22.444,32.02,22.444
			C1046.95,1619.007,1062.408,1623.93,1061.819,1645.209z"/>
		<path style="fill:#ED7D2B;" d="M853.902,1389.88c-36.307-9.994-68.047-26.239-83.287-51.135l41.031-198.811
			C811.646,1139.935,901.924,1320.694,853.902,1389.88z"/>
		<path style="fill:#ED7D2B;" d="M808.497,989.824c0,0-8.129,103.385-38.778,126.875c-20.159-19.711-18.051-37.87-18.051-37.87
			s44.29-74.347,56.78-88.956C808.473,989.836,808.497,989.824,808.497,989.824z"/>
		<path style="fill:#ED7D2B;" d="M1035.062,1074.093c-4.204,10.431-10.976,20.776-21.648,29.462
			c-2.617-9.183-7.693-30.056-1.114-33.812C1020.779,1064.897,1035.062,1074.093,1035.062,1074.093z"/>
	</g>
	<g>
		<g>
			<path style="fill:#ED7D2B;" d="M1284.49,781.217c0,0-60.485-8.48-80.589,103.78c-14.164,79.088,24.633,120.106-0.403,139.403
				c-25.037,19.297-35.536,0-35.536,0s2.207,42.01,72.175,39.134c69.968-2.877,185.318-10.758,196.766-44.065
				C1448.35,986.16,1419.594,737.201,1284.49,781.217z"/>
			<path style="fill:#FFB27D;" d="M1404.953,1033.698l-99.2-35.489c0.45-0.294,1.698-3.325,4.445-23.784
				c1.168-8.723,1.232-16.101,0.833-21.857c-0.041-0.578-0.076-1.131-0.136-1.68c-0.742-8.337-2.353-12.905-2.353-12.905
				l20.784,3.089l30.446-10.242c1.419,9.169,11.983,31.283,14.803,35.275c6.83,9.706,13.532,5.527,13.532,5.527L1404.953,1033.698z"
				/>
			<path style="fill:#ED985F;" d="M1367.16,951.553c-34.03,9.934-61.415-9.882-66.877-14.717c-0.805-0.704-1.217-1.104-1.217-1.104
				s0.392-0.206,1.082-0.575c2.647-1.402,9.822-5.247,18.431-9.815l41.397,2.966C1361.395,937.476,1364.569,945.535,1367.16,951.553
				z"/>
			<path style="fill:#FFB27D;" d="M1363.05,937.588c0,0-75.213,23.992-87.298-27.702c-12.084-51.693-28.265-73.197,24.02-88.585
				c52.285-15.388,68.729,1.24,75.421,18.204C1396.098,892.5,1384.248,930.877,1363.05,937.588z"/>
			<path style="fill:#FFB27D;" d="M1448.984,1610.049l-41.492,11.012c0,0-25.501-88.835-30.916-150.559
				c-0.836-9.364-1.188-18.099-0.933-25.815c1.199-35.326-73.85-182.577-22.533-216.038c35.313-23.018,86.606-3.828,86.606-3.828
				s7.148,187.156,7.148,222.289c0,4.785,0.036,11.278,0.097,18.935C1447.397,1514.659,1448.984,1610.049,1448.984,1610.049z"/>
			<path style="fill:#FFB27D;" d="M1370.143,1235.894c0,0-33.799,190.221-41.879,232.67c-0.667,3.429-1.151,5.899-1.43,7.221
				c-3.816,17.663-22.921,138.649-22.921,138.649l-41.286-2.168c0,0-12.442-88.92-9.813-152.715
				c0.654-15.615,2.205-29.729,5.064-40.668c14.538-55.582-19.044-192.947,34.09-225.185
				C1345.103,1161.462,1370.143,1235.894,1370.143,1235.894z"/>
			<path style="fill:#FFECE1;" d="M1348.123,908.831c-0.65-3.219,5.828-7.463,10.803-8.468c4.975-1.005,12.218,0.703,12.36,3.064
				c0.329,5.451-4.345,10.978-9.32,11.983C1356.991,916.415,1349.128,913.807,1348.123,908.831z"/>
			<path style="fill:#FFB27D;" d="M1264.233,985.841c0,0-59.355,118.429-73.893,132.966c-14.537,14.537-65.822,61.38-83.59,74.569
				c0,0-54.515,15.574-53.304,21.989c1.211,6.414,37.958,5.203,41.997,6.818c4.038,1.615-8.077,11.711,2.019,11.307
				c6.625-0.265,13.25-12.009,17.022-20.051c0,0,92.815-45.367,106.545-52.636c13.729-7.269,54.919-58.957,62.188-80.763
				C1290.486,1058.234,1264.233,985.841,1264.233,985.841z"/>
			<path style="fill:#FFB27D;" d="M1710.677,1148.479c-0.768-6.483-57.444-4.997-57.444-4.997
				c-20.904-7.255-83.874-36.567-102.101-46.077c-18.227-9.511-110.358-104.696-110.358-104.696s-3.341,76.935,10.131,95.559
				c13.472,18.624,68.263,55.585,83.541,58.403s117.423,18.271,117.425,18.271c6.009,6.541,15.851,15.759,22.251,14.025
				c9.752-2.642-4.832-8.641-1.464-11.393S1711.444,1154.961,1710.677,1148.479z"/>
			<path style="fill:#6BB7BF;" d="M1479.016,1074.092c11.061-27.354,4.495-55.229,4.495-55.229
				c-24.194-28.241-45.792-39.495-59.269-43.981c-9.493-4.275-28.207-6.071-47.555-6.194c3.889,6.99,18.7,34.342-5.748,37.855
				c-28.13,4.046-59.276-26.797-60.742-30.722c-0.4-1.054,2.58-2.544,7.607-4.046c-3.246,0.272-6.296,0.543-9.109,0.804
				c0.026-0.436,0.04-0.67,0.04-0.67s-43.842,3.404-56.284,17.918c0,0-0.024,0.012-0.048,0.048
				c-12.49,14.61-56.781,88.956-56.781,88.956s-2.108,18.159,18.051,37.87c7.208,7.038,17.251,14.283,31.268,20.958
				c13.851,6.603,24.813-1.465,33.452-17.005l2.73,10.147l1.732,6.457c1.066,3.962,0.896,8.153-0.484,12.006l-0.933,2.593
				l-66.872,186.89c15.24,24.896,46.98,41.141,83.287,51.135c75.727,20.837,171.347,14.525,178.712,3.065
				c6.239-39.433-3.816-135.5-14.828-228.007c-0.339-2.811-0.667-5.585-0.994-8.298c-0.981-8.165-1.926-15.919-2.883-23.381
				c-1.219-9.459-2.45-18.44-3.776-27.182c1.128-0.825,2.232-1.662,3.283-2.523
				C1468.04,1094.869,1474.813,1084.523,1479.016,1074.092z"/>
			<path style="fill:#F99746;" d="M1328.264,1468.563c-0.667,3.429-1.151,5.899-1.43,7.221
				c-3.816,17.663-22.921,138.649-22.921,138.649l-41.286-2.168c0,0-12.442-88.92-9.813-152.715
				C1263.657,1464.663,1285.536,1470.345,1328.264,1468.563z"/>
			<path style="fill:#35488B;" d="M1362.822,1645.209h-103.337c0,0-1.973-16.987,0.402-31.504c0.285-1.768,1.195-3.354,2.552-4.761
				c6.051,2.074,14.94,3.534,24.828-0.054c8.104-2.939,15.286-8.121,19.462-12.196c1.071,1.046,21.234,22.313,31.105,22.313
				C1347.954,1619.007,1363.412,1623.93,1362.822,1645.209z"/>
			<path style="fill:#F99746;" d="M1448.984,1610.049l-41.492,11.012c0,0-25.501-88.835-30.916-150.559
				c17.081,1.224,46.774,2.145,70.385-4.458C1447.397,1514.659,1448.984,1610.049,1448.984,1610.049z"/>
			<path style="fill:#35488B;" d="M1505.773,1645.209h-103.337c0,0-1.973-16.987,0.401-31.504c0.286-1.768-0.257-4.159,1.1-5.566
				c6.051,2.074,16.392,4.34,26.28,0.752c8.104-2.939,14.59-8.565,18.767-12.641c1.071,1.046,21.93,22.757,31.8,22.757
				C1490.904,1619.007,1506.362,1623.93,1505.773,1645.209z"/>
			<path style="fill:#599DAD;" d="M1252.451,989.824c0,0-8.129,103.385-38.778,126.875c-20.159-19.711-18.051-37.87-18.051-37.87
				s44.291-74.347,56.781-88.956C1252.427,989.836,1252.451,989.824,1252.451,989.824z"/>
			<path style="fill:#599DAD;" d="M1479.016,1074.093c-4.204,10.431-10.976,20.776-21.648,29.462
				c-2.617-9.183-7.692-30.056-1.114-33.812C1464.733,1064.897,1479.016,1074.093,1479.016,1074.093z"/>
			<g>
				<path style="fill:#599DAD;" d="M1460.743,1156.641c-26.264,11.859-52.334,15.979-76.188,15.979
					c-39.142,0-72.299-11.072-90.483-17.154c-2.617-0.872-8.456-2.507-12.635-3.609l0.518-1.444
					c1.65-4.604,1.855-9.604,0.586-14.328l-1.419-5.283c4.422,1.333,11.933,5.173,18.705,7.438
					c26.64,8.893,95.946,21.273,158.033-4.979C1458.817,1140.722,1459.762,1148.476,1460.743,1156.641z"/>
			</g>
			<g>
				<path style="fill:#F99746;" d="M1389.656,1156.675c0,0-15.034-19.687-22.963-17.566c-7.929,2.12-12.472,42.704,2.368,43.915
					C1383.901,1184.235,1389.656,1156.675,1389.656,1156.675z"/>
				<path style="fill:#F99746;" d="M1389.656,1156.675c0,0,15.034-19.687,22.963-17.566c7.929,2.12,12.472,42.704-2.368,43.915
					C1395.41,1184.235,1389.656,1156.675,1389.656,1156.675z"/>
				<path style="fill:#ED7D2B;" d="M1382.589,1156.675c0-3.903,3.164-7.067,7.067-7.067s7.067,3.164,7.067,7.067
					c0,3.902-3.164,7.066-7.067,7.066S1382.589,1160.577,1382.589,1156.675z"/>
			</g>
			<path style="fill:#ED7D2B;" d="M1382.589,846.231c0,0-10.095-41.88-56.332-41.593c-8.082,0.05-39.574,7.673-57.746,32.826
				c-5.434,7.522-12.375,43.797-16.364,54.093c-13.335,34.422,22.421,106.106,24.844,123.672
				c2.423,17.565-12.114,19.87-12.114,19.87s4.846,18.29,38.695,3.753c19.886-8.541,34.955-61.118,0.566-123.396
				c-12.652-22.912-5.372-51.751,16.613-65.954c11.43-7.385,16.51-29.317,16.51-29.317c14.323-3.029,48.681,36.452,48.681,36.452
				L1382.589,846.231z"/>
		</g>
		<path style="fill:#ED7D2B;" d="M1253.011,1459.551l-11.359,10.172c0,0,4.235,6.058,17.261,5.653
			c13.025-0.403,19.083,2.423,26.352,6.058c7.269,3.634,15.076-0.808,25.709,0c10.634,0.808,19.524,2.9,24.367,1.45l-6.88-14.32
			C1328.459,1468.563,1271.234,1471.185,1253.011,1459.551z"/>
		<path style="fill:#ED7D2B;" d="M1376.455,1469.684l-7.956,12.45c0,0,5.334,4.919,17.165,1.572
			c11.831-3.346,18.057-1.976,25.586-0.097s13.611-4.203,23.542-5.831c9.932-1.628,18.576-1.613,22.661-4.119l-10.321-10.899
			C1447.132,1462.76,1396.414,1475.376,1376.455,1469.684z"/>
	</g>
	<g>
		<g>
			<g>
				<path style="fill:#D39E7A;" d="M2180.776,1624.591l-95.94-756.477h4.328l116.529,755.929
					C2206.262,1628.668,2181.473,1630.186,2180.776,1624.591z"/>
			</g>
			<g>
				<path style="fill:#F99746;" d="M2032.066,838.214c-8.128-7.359-8.752-19.914-1.394-28.043
					c7.358-8.129,19.914-8.753,28.042-1.394c8.129,7.358,8.754,19.914,1.395,28.043
					C2052.751,844.949,2040.195,845.573,2032.066,838.214z"/>
				<polygon style="fill:#ED7D2B;" points="2157.576,919.529 2154.081,923.391 2135.018,908.234 2140.578,902.091 				"/>
				<polygon style="fill:#F99746;" points="2063.516,812.579 2107.042,856.154 2120.951,870.058 2123.718,872.83 2150.567,899.699 
					2134.256,917.717 2104.055,894.55 2100.948,892.154 2085.304,880.168 2036.32,842.62 				"/>
				<path style="fill:#D36820;" d="M2064.996,812.738l-28.365,31.334c-0.811,0.894-2.191,0.963-3.085,0.153l0,0
					c-0.895-0.81-0.964-2.19-0.154-3.085l28.366-31.334c0.81-0.894,2.191-0.963,3.085-0.153l0,0
					C2065.737,810.462,2065.806,811.843,2064.996,812.738z"/>
				<polygon style="fill:#ED7D2B;" points="2123.718,872.83 2150.567,899.699 2134.256,917.717 2104.055,894.55 				"/>
			</g>
			<path style="fill:#D39E7A;" d="M2069.579,868.114c0.535,0.41,7.34,26.095,39.169,30.036L2069.579,868.114z"/>
		</g>
		<path style="fill:#ED7D2B;" d="M2248.414,1645.138h-108.857c1.105-7.255,4.532-13.763,9.521-18.737
			c6.107-6.107,14.522-9.894,23.795-9.894h42.214C2231.902,1616.507,2245.955,1628.971,2248.414,1645.138z"/>
	</g>
	<g>
		<g>
			<g>
				<path style="fill:#D39E7A;" d="M1662.681,1625.62l-89.185-703.205h4.023l108.324,702.696
					C1686.371,1629.411,1663.327,1630.821,1662.681,1625.62z"/>
			</g>
			<g>
				<path style="fill:#F99746;" d="M1524.443,894.621c-7.556-6.841-8.137-18.512-1.296-26.068
					c6.841-7.557,18.512-8.137,26.068-1.296c7.556,6.841,8.136,18.512,1.296,26.068
					C1543.67,900.881,1531.999,901.461,1524.443,894.621z"/>
				<polygon style="fill:#ED7D2B;" points="1641.114,970.209 1637.864,973.799 1620.144,959.709 1625.313,954 				"/>
				<polygon style="fill:#F99746;" points="1553.677,870.79 1594.138,911.297 1607.068,924.222 1609.64,926.799 1634.598,951.776 
					1619.436,968.525 1591.361,946.989 1588.473,944.763 1573.931,933.62 1528.396,898.716 				"/>
				<path style="fill:#D36820;" d="M1555.053,870.938l-26.369,29.127c-0.752,0.832-2.036,0.895-2.867,0.143l0,0
					c-0.831-0.752-0.896-2.036-0.143-2.867l26.368-29.128c0.753-0.831,2.037-0.895,2.868-0.143l0,0
					C1555.742,868.823,1555.806,870.107,1555.053,870.938z"/>
				<polygon style="fill:#ED7D2B;" points="1609.64,926.799 1634.598,951.776 1619.436,968.525 1591.361,946.989 				"/>
			</g>
			<path style="fill:#D39E7A;" d="M1559.313,922.415c0.498,0.381,6.823,24.258,36.411,27.921L1559.313,922.415z"/>
		</g>
		<path style="fill:#ED7D2B;" d="M1725.555,1644.72h-101.191c1.027-6.743,4.213-12.793,8.85-17.417
			c5.678-5.678,13.5-9.197,22.119-9.197h39.241C1710.205,1618.105,1723.269,1629.691,1725.555,1644.72z"/>
	</g>
	<g>
		<path style="fill:#CAD9EF;" d="M1364.309,660.398c0,0-20.369-6.09-21.59,5.226c-1.221,11.316,15.792,10.536,21.527,8.543
			c5.735-1.992,6.2-12.294,6.2-12.294l-3.069-0.737L1364.309,660.398z"/>
		<path style="fill:#CAD9EF;" d="M1380.719,604.335l-2.006-0.105l-14.404,56.168l6.137,1.475l8.07-45.199
			c1.73,4.167,6.079,8.042,16.419,10.527c1.19,0.286,2.447,0.526,3.772,0.714C1379.627,625.206,1380.699,604.951,1380.719,604.335z"
			/>
	</g>
	<g>
		<path style="fill:#F99746;" d="M1467.868,420.835c0,0-28.251,2.153-24.365,16.815s24.681,5.564,30.864,0.346
			s1.841-18.258,1.841-18.258l-4.17,0.548L1467.868,420.835z"/>
		<path style="fill:#F99746;" d="M1461.503,343.244l-2.546,0.828l8.911,76.763l8.34-1.097l-11.551-60.09
			c4.143,4.358,11.404,7.102,25.457,5.253c1.617-0.212,3.295-0.514,5.034-0.913C1470.116,369.731,1461.772,344.019,1461.503,343.244
			z"/>
	</g>
	<g>
		<path style="fill:#F99746;" d="M1677.429,671.531c0,0-34.7-6.825-34.912,12.107c-0.212,18.932,27.834,14.918,37.011,10.702
			c9.177-4.216,8.299-21.35,8.299-21.35l-5.198-0.73L1677.429,671.531z"/>
		<path style="fill:#F99746;" d="M1695.632,576.077l-3.339,0.147l-14.864,95.307l10.397,1.46l6.131-76.131
			c3.531,6.623,11.352,12.343,28.871,14.803c2.016,0.283,4.136,0.479,6.36,0.58C1697.164,610.809,1695.697,577.099,1695.632,576.077
			z"/>
	</g>
	<path style="fill:#F99746;" d="M1110.86,517.18c1.487,0.72,27.257,2.041,50.979-23.616l36.259,61.619
		c0,0,4.999,22.051-17.587,25.238c-12.565,1.772-13.81-8.702-8.677-16.772c4.093-6.435,13.786-10.695,13.786-10.695l-21.151-35.944
		c0,0-16.303,17.709-35.783,17.51l19.479,38.524c0,0,8.678,20.773-11.754,26.415c-20.432,5.642-13.945-21.171,2.832-22.863
		L1110.86,517.18z"/>
	<path style="fill:#2E3552;" d="M2997.815,1652.664H193.633c-1.751,0-3.184-1.433-3.184-3.184v-1.087
		c0-1.751,1.433-3.185,3.184-3.185h2804.183c1.752,0,3.185,1.434,3.185,3.185v1.087
		C3001,1651.231,2999.567,1652.664,2997.815,1652.664z"/>
</g>
</svg>
